<svg width="42" height="34" viewBox="0 0 42 34" fill="none" xmlns="http://www.w3.org/2000/svg">
<path d="M0 1C0 0.447715 0.447715 0 1 0H40.1163C40.6686 0 41.1163 0.447715 41.1163 1V3.08C41.1163 3.63229 40.6686 4.08 40.1163 4.08H1C0.447715 4.08 0 3.63229 0 3.08V1Z" fill="#FF9432"/>
<path d="M0 15.96C0 15.4077 0.447715 14.96 1 14.96H40.1163C40.6686 14.96 41.1163 15.4077 41.1163 15.96V18.04C41.1163 18.5922 40.6686 19.04 40.1163 19.04H1C0.447715 19.04 0 18.5922 0 18.04V15.96Z" fill="#FF9432"/>
<path d="M0 30.9199C0 30.3676 0.447715 29.9199 1 29.9199H40.1163C40.6686 29.9199 41.1163 30.3676 41.1163 30.9199V32.9999C41.1163 33.5522 40.6686 33.9999 40.1163 33.9999H1C0.447715 33.9999 0 33.5522 0 32.9999V30.9199Z" fill="#FF9432"/>
</svg>
