<svg viewBox="0 0 70 69" fill="none" xmlns="http://www.w3.org/2000/svg">
<path d="M22.0589 13.995H21.5589V13.495V5.82829C21.5589 5.09394 21.8531 4.40889 22.3641 3.92551C22.8509 3.41784 23.5391 3.12772 24.2749 3.12772H45.725C46.4609 3.12772 47.1491 3.41785 47.6359 3.92555C48.1468 4.40893 48.4411 5.09396 48.4411 5.82829V13.495V13.995H47.9411H45.5302H45.0302V13.495V9.81876C45.0302 8.80121 44.6042 7.88651 43.9364 7.22326C43.2686 6.55991 42.3456 6.1348 41.318 6.1348H28.6819C27.6829 6.1348 26.7576 6.55687 26.0608 7.22599C25.3946 7.88902 24.9697 8.8026 24.9697 9.81876V13.495V13.995H24.4697H22.0589ZM49.5117 2.07198L49.5075 2.06767C48.5539 1.09782 47.1968 0.5 45.725 0.5H24.2749C22.8032 0.5 21.4461 1.09781 20.4918 2.06779L20.4877 2.07185C19.5055 3.04748 18.9066 4.37341 18.9066 5.82829V15.3092C18.9066 16.0408 19.5031 16.6228 20.2331 16.6228H26.2956C27.0453 16.6228 27.6214 16.0454 27.6214 15.3092V9.81876C27.6214 9.5157 27.7671 9.24881 27.94 9.07705C28.113 8.90524 28.3802 8.76255 28.6819 8.76255H41.318C41.6197 8.76255 41.887 8.90524 42.06 9.07704C42.2339 9.24984 42.378 9.51693 42.378 9.81876V15.3092C42.378 16.0451 42.9544 16.6228 43.7044 16.6228H49.7669C50.4966 16.6228 51.0927 16.041 51.0927 15.3092V5.82829C51.0927 4.37329 50.4944 3.04745 49.5117 2.07198ZM36.8383 42.6058H36.3383V42.1058V35.7213C36.3383 35.0089 35.7374 34.4071 35.0119 34.4071C34.2671 34.4071 33.6861 35.0044 33.6861 35.7213V42.1058V42.6058H33.1861H26.7584C26.0286 42.6058 25.432 43.1876 25.432 43.9199C25.432 44.6321 26.0328 45.2335 26.7584 45.2335H33.1861H33.6861V45.7335V52.0944C33.6861 52.8311 34.2628 53.4085 35.0119 53.4085C35.7417 53.4085 36.3383 52.8267 36.3383 52.0944V45.7335V45.2335H36.8383H43.2416C43.9672 45.2335 44.568 44.6321 44.568 43.9199C44.568 43.1876 43.9714 42.6058 43.2416 42.6058H36.8383ZM67.3346 20.8397L67.3344 20.8395C65.9886 19.5022 64.1417 18.6872 62.1111 18.6872H7.88828C5.85754 18.6872 4.0125 19.5026 2.693 20.8365L2.54623 20.9849H2.52311C1.26161 22.3076 0.5 24.0813 0.5 26.0232V61.164C0.5 63.1773 1.31908 65.0103 2.66547 66.3477C4.01137 67.6845 5.85836 68.5 7.88828 68.5H62.1111C64.1424 68.5 65.9875 67.6841 67.307 66.3507L67.4538 66.2024H67.4768C68.7384 64.8791 69.5 63.1053 69.5 61.164V26.0232C69.5 24.0094 68.6809 22.1764 67.3346 20.8397ZM35.0119 29.9249C38.8982 29.9249 42.4078 31.4796 44.9575 34.0121C47.5079 36.5454 49.0737 40.0576 49.0737 43.9199C49.0737 47.7826 47.5072 51.2709 44.9575 53.8035C42.4095 56.3344 38.9004 57.915 35.0119 57.915C31.1 57.915 27.5908 56.3347 25.0425 53.8035C22.4928 51.2709 20.9263 47.7827 20.9263 43.9199C20.9263 40.0576 22.4921 36.5454 25.0425 34.0121C27.5925 31.4792 31.1023 29.9249 35.0119 29.9249ZM51.726 43.9199C51.726 39.3182 49.8593 35.1634 46.834 32.1578C43.8077 29.1523 39.6231 27.2966 35.0119 27.2966C30.3759 27.2966 26.1921 29.1526 23.166 32.1578C20.1407 35.1634 18.274 39.3182 18.274 43.9199C18.274 48.4971 20.1404 52.652 23.1661 55.6579C26.1934 58.6643 30.3777 60.5427 35.0119 60.5427C39.6214 60.5427 43.8064 58.6646 46.834 55.6579C49.8596 52.6519 51.726 48.4971 51.726 43.9199ZM7.88828 21.315H62.1111C63.4145 21.315 64.5863 21.8281 65.456 22.6908C66.333 23.5362 66.8477 24.7302 66.8477 26.0232V61.164C66.8477 62.4572 66.3329 63.6507 65.4558 64.4961C64.5862 65.3585 63.4146 65.8722 62.1111 65.8722H7.88828C6.58538 65.8722 5.41376 65.3584 4.54416 64.4961C3.66714 63.6507 3.15227 62.4572 3.15227 61.164V26.0232C3.15227 24.7301 3.6671 23.536 4.54419 22.6906C5.41392 21.8281 6.58558 21.315 7.88828 21.315Z" fill="#1A1919" stroke="white"/>
</svg>
