<svg width="124" height="123" fill="none" xmlns="http://www.w3.org/2000/svg"><path d="M39.08 25.04h-1v-14.6c0-1.34.53-2.59 1.45-3.47A4.78 4.78 0 0 1 43 5.52h38c1.33 0 2.58.53 3.47 1.45a4.75 4.75 0 0 1 1.45 3.46v14.61h-6.27v-7.52a6.45 6.45 0 0 0-6.46-6.43H50.81a6.6 6.6 0 0 0-4.56 1.9 6.38 6.38 0 0 0-1.9 4.53v7.52h-5.27Zm48.55-21.2h-.01A9.28 9.28 0 0 0 81 1.07H43a9.28 9.28 0 0 0-6.62 2.75v.01a9.27 9.27 0 0 0-2.77 6.6v16.83c0 1.23 1 2.22 2.23 2.22h10.74a2.2 2.2 0 0 0 2.23-2.22v-9.75c0-.58.28-1.08.6-1.4.33-.32.83-.59 1.4-.59h22.38a2.02 2.02 0 0 1 2 1.99v9.75a2.2 2.2 0 0 0 2.23 2.22h10.74c1.23 0 2.23-.99 2.23-2.22V10.43a9.27 9.27 0 0 0-2.76-6.59Zm-22.37 72h-1V63.52c0-1.2-1.02-2.22-2.24-2.22-1.25 0-2.23 1-2.23 2.22v12.34H47.4c-1.23 0-2.23.98-2.23 2.22 0 1.2 1.01 2.22 2.23 2.22H59.8v12.29a2.2 2.2 0 0 0 2.23 2.22c1.23 0 2.24-.98 2.24-2.22v-12.3H76.6a2.25 2.25 0 0 0 2.23-2.21c0-1.24-1-2.22-2.23-2.22H65.26Zm53.94-38.68a12.95 12.95 0 0 0-9.17-3.78H13.97c-3.56 0-6.8 1.43-9.12 3.78l-.3.3h-.03A12.82 12.82 0 0 0 1 46.29v62.4a12.95 12.95 0 0 0 12.97 12.91h96.06c3.56 0 6.8-1.44 9.12-3.78l.3-.3h.03a12.82 12.82 0 0 0 3.52-8.84v-62.4c0-3.54-1.44-6.76-3.8-9.12ZM62.02 53.1a24.97 24.97 0 0 1 25.02 24.97 25.01 25.01 0 0 1-25.02 24.96 25.04 25.04 0 0 1-25.06-24.96c0-6.9 2.78-13.16 7.32-17.67a25 25 0 0 1 17.74-7.3Zm29.5 24.97c0-8.14-3.3-15.5-8.64-20.8a29.49 29.49 0 0 0-20.86-8.6 29.51 29.51 0 0 0-20.9 8.59 29.24 29.24 0 0 0-8.63 20.8c0 8.1 3.29 15.45 8.63 20.77a29.55 29.55 0 0 0 41.76 0 29.22 29.22 0 0 0 8.63-20.76ZM13.96 37.82h96.06c2.34 0 4.44.92 6 2.47a8.3 8.3 0 0 1 2.5 6v62.4a8.3 8.3 0 0 1-2.5 5.99 8.45 8.45 0 0 1-6 2.48H13.97a8.45 8.45 0 0 1-6-2.48 8.3 8.3 0 0 1-2.5-6v-62.4a8.3 8.3 0 0 1 2.5-5.99 8.45 8.45 0 0 1 6-2.47Z" fill="#1A1919" stroke="#fff" stroke-width="2"/></svg>