<svg width="71" height="153" fill="none" xmlns="http://www.w3.org/2000/svg"><rect x="1.7" y="26.2" width="67.7" height="125.8" rx="1" stroke="#000" stroke-width="2" stroke-linecap="round" stroke-linejoin="round"/><path stroke="#000" stroke-width="2" d="M.7 59h69.7M.7 117.1h69.7"/><path stroke="#000" stroke-width="2" stroke-linecap="round" stroke-linejoin="round" d="M23 18.4h25.1v7.7H23z"/><path stroke="#000" stroke-width="2" stroke-linejoin="round" d="M13.3 1h44.5v17.4H13.3z"/><mask id="a" fill="#fff"><path fill-rule="evenodd" clip-rule="evenodd" d="M40.5 71.7h-10V84H18.1v10h12.4v12.4h10V94.1h12.4V84H40.5V71.7Z"/></mask><path d="M30.5 71.7v-2a2 2 0 0 0-2 2h2Zm10 0h2a2 2 0 0 0-2-2v2ZM30.5 84v2a2 2 0 0 0 2-2h-2Zm-12.4 0v-2a2 2 0 0 0-2 2h2Zm0 10h-2c0 1 .9 2 2 2v-2Zm12.4 0h2a2 2 0 0 0-2-2v2Zm0 12.4h-2c0 1.1 1 2 2 2v-2Zm10 0v2a2 2 0 0 0 2-2h-2Zm0-12.4v-2a2 2 0 0 0-2 2h2Zm12.4 0v2a2 2 0 0 0 2-2h-2Zm0-10h2a2 2 0 0 0-2-2v2Zm-12.4 0h-2a2 2 0 0 0 2 2v-2Zm-10-10.4h10v-4h-10v4Zm2 10.4V71.7h-4V84h4Zm-14.4 2h12.4v-4H18.1v4Zm2 8V84h-4v10h4Zm10.4-2H18.1v4h12.4v-4Zm2 14.4V94.1h-4v12.4h4Zm8-2h-10v4h10v-4Zm-2-10.4v12.4h4V94.1h-4Zm14.4-2H40.5v4h12.4v-4Zm-2-8v10h4V84h-4Zm-10.4 2h12.4v-4H40.5v4Zm-2-14.4V84h4V71.7h-4Z" fill="#000" mask="url(#a)"/></svg>