<svg width="55" height="127" fill="none" xmlns="http://www.w3.org/2000/svg"><mask id="a" fill="#fff"><path d="M48.473 60.125V26.922c0-9.75-5.31-15.979-12.14-18.728l-.13-.043a23.882 23.882 0 0 0-8.704-1.632c-3.002 0-6.004.558-8.701 1.632h-.044c-6.875 2.706-12.227 8.934-12.227 18.77V60.126h41.946Zm-9.704 57.172c5.397-3.05 9.4-8.591 9.66-16.623l.044-.43V66.568H6.527v34.449c.653 12.757 10.79 19.114 20.973 19.114h1l.131-.042H29.023c.13 0 .304 0 .435-.043 3.307-.258 6.484-1.16 9.311-2.749Zm16.1-14.647c-.87 9.578-5.917 16.279-12.662 20.102l-.217.128-.044.043c-3.567 1.976-7.571 3.136-11.618 3.523h-.173l-.175.043h-.348l-.174.043H28.762l-.044.042h-2.48l-.13-.042h-.392c-12.184-.687-23.888-8.42-25.541-23.195v-.043l-.044-.43-.044-.301v-.343a3.207 3.207 0 0 1-.043-.645v-.214a2.797 2.797 0 0 1-.044-.602V26.836C0 14.036 7.18 5.788 16.36 2.18 19.887.763 23.716.076 27.5.076s7.57.687 11.096 2.105c.087 0 .13.043.217.086C47.864 5.917 54.956 14.122 55 26.836v73.622c0 .173-.044.387-.044.559v.515l-.043.216v.515l-.044.387Zm-16.796-5.628c0-1.803 1.48-3.221 3.264-3.221 1.827 0 3.263 1.418 3.263 3.22 0 5.499-2.175 9.709-5.439 12.501-3.22 2.792-7.484 4.209-11.662 4.209-1.826 0-3.262-1.459-3.262-3.221 0-1.804 1.436-3.222 3.263-3.222 2.698 0 5.396-.858 7.354-2.577 1.957-1.675 3.219-4.21 3.219-7.69Z"/></mask><path d="M48.473 60.125V26.922c0-9.75-5.31-15.979-12.14-18.728l-.13-.043a23.882 23.882 0 0 0-8.704-1.632c-3.002 0-6.004.558-8.701 1.632h-.044c-6.875 2.706-12.227 8.934-12.227 18.77V60.126h41.946Zm-9.704 57.172c5.397-3.05 9.4-8.591 9.66-16.623l.044-.43V66.568H6.527v34.449c.653 12.757 10.79 19.114 20.973 19.114h1l.131-.042H29.023c.13 0 .304 0 .435-.043 3.307-.258 6.484-1.16 9.311-2.749Zm16.1-14.647c-.87 9.578-5.917 16.279-12.662 20.102l-.217.128-.044.043c-3.567 1.976-7.571 3.136-11.618 3.523h-.173l-.175.043h-.348l-.174.043H28.762l-.044.042h-2.48l-.13-.042h-.392c-12.184-.687-23.888-8.42-25.541-23.195v-.043l-.044-.43-.044-.301v-.343a3.207 3.207 0 0 1-.043-.645v-.214a2.797 2.797 0 0 1-.044-.602V26.836C0 14.036 7.18 5.788 16.36 2.18 19.887.763 23.716.076 27.5.076s7.57.687 11.096 2.105c.087 0 .13.043.217.086C47.864 5.917 54.956 14.122 55 26.836v73.622c0 .173-.044.387-.044.559v.515l-.043.216v.515l-.044.387Zm-16.796-5.628c0-1.803 1.48-3.221 3.264-3.221 1.827 0 3.263 1.418 3.263 3.22 0 5.499-2.175 9.709-5.439 12.501-3.22 2.792-7.484 4.209-11.662 4.209-1.826 0-3.262-1.459-3.262-3.221 0-1.804 1.436-3.222 3.263-3.222 2.698 0 5.396-.858 7.354-2.577 1.957-1.675 3.219-4.21 3.219-7.69Z" fill="#1A1919"/><path d="M48.473 60.125h2v2h-2v-2ZM36.333 8.194l.626-1.9.061.02.06.025-.746 1.855Zm-.13-.043-.626 1.9-.052-.018-.052-.02.73-1.862Zm-17.406 0 .74 1.858-.356.142h-.384v-2Zm-.043 0L18.02 6.29l.353-.14h.38v2ZM6.527 60.125v2h-2v-2h2Zm41.902 40.549-1.999-.065.003-.069.007-.068 1.99.202Zm.044-.43h2v.101l-.01.101-1.99-.202Zm0-33.676v-2h2v2h-2Zm-41.946 0h-2v-2h2v2Zm0 34.449-1.997.103-.003-.051v-.052h2ZM28.5 120.131l.611 1.905-.298.095H28.5v-2Zm.131-.042-.61-1.904.297-.096h.313v2Zm.827-.043-.625-1.9.23-.075.24-.019.155 1.994ZM54.87 102.65l-1.992-.181.002-.022.003-.022 1.987.225Zm-12.662 20.102-1.017-1.722.015-.009.016-.009.986 1.74Zm-.217.128-1.405-1.423.175-.174.213-.125 1.017 1.722Zm-.044.043 1.405 1.424-.196.193-.24.133-.969-1.75Zm-11.618 3.523.19 1.991-.095.009h-.095v-2Zm-.173 0-.48-1.942.236-.058h.244v2Zm-.175.043.479 1.942-.236.058h-.243v-2Zm-.348 0-.482-1.941.237-.059h.245v2Zm-.174.043.482 1.941-.237.059h-.245v-2Zm-.696 0-1.387-1.441.58-.559h.807v2Zm-.044.042 1.387 1.441-.58.559h-.807v-2Zm-2.48 0v2h-.316l-.3-.097.616-1.903Zm-.13-.042v-2h.316l.3.097-.616 1.903Zm-.392 0v2h-.056l-.056-.003.112-1.997ZM.175 103.337l-1.988.222-.012-.111v-.111h2Zm0-.043 1.99-.202.01.1v.102h-2Zm-.044-.43 1.98-.288.005.043.005.043-1.99.202Zm-.044-.301-1.979.288-.02-.143v-.145h2Zm0-.343 1.96-.399.04.197v.202h-2Zm-.043-.859 1.96-.397.04.197v.2h-2ZM16.36 2.181l.746 1.855-.008.003-.007.003-.731-1.861Zm22.235 0v2h-.387l-.36-.145.747-1.855Zm.217.086-.748 1.855-.075-.03-.071-.036.894-1.79ZM55 26.836l2-.007v.007h-2Zm-.044 74.696h2v.201l-.04.196-1.96-.397Zm-.043.216h-2v-.201l.04-.196 1.96.397Zm0 .515h2v.112l-.013.112-1.987-.224Zm-15.752 7.259-1.31-1.511.01-.008 1.3 1.519Zm-4.307-4.811-1.32-1.503.01-.008.01-.008 1.3 1.519Zm11.619-44.586V26.922h4v33.203h-4Zm0-33.203c0-8.883-4.764-14.409-10.886-16.873l1.493-3.71c7.54 3.034 13.393 9.965 13.393 20.583h-4ZM35.708 10.094l-.13-.043 1.25-3.8.13.043-1.25 3.8Zm-.235-.081A21.883 21.883 0 0 0 27.5 8.519v-4c3.25 0 6.456.603 9.432 1.77l-1.46 3.724ZM27.5 8.519c-2.762 0-5.512.514-7.963 1.49l-1.48-3.716c2.945-1.173 6.2-1.774 9.443-1.774v4Zm-8.703 1.632h-.043v-4h.043v4Zm.69-.14c-6.156 2.424-10.96 7.944-10.96 16.91h-4c0-10.705 5.9-17.642 13.494-20.631l1.465 3.722Zm-10.96 16.91v.044h-4v-.043h4Zm0 .044v33.16h-4v-33.16h4Zm-2 31.16h41.946v4H6.527v-4Zm31.258 57.431c4.81-2.719 8.408-7.637 8.645-14.947l3.998.13c-.284 8.754-4.692 14.918-10.675 18.299l-1.968-3.482Zm8.655-15.084.043-.43 3.98.404-.044.43-3.98-.404Zm.033-.228v-.086h4v.086h-4Zm0-.086v-.429h4v.429h-4Zm0-.429V66.568h4v33.161h-4Zm2-31.161H6.527v-4h41.946v4Zm-39.946-2v33.161h-4V66.568h4Zm0 33.161V100.33h-4V99.73h4Zm0 .601v.086h-4v-.086h4Zm0 .086V100.974h-4V100.416h4Zm0 .558v.043h-4v-.043h4Zm-.003-.059c.298 5.822 2.735 10.073 6.183 12.896 3.484 2.852 8.099 4.32 12.793 4.32v4c-5.489 0-11.034-1.711-15.327-5.225-4.33-3.545-7.289-8.851-7.643-15.786l3.994-.205ZM27.5 118.131h.13v4h-.13v-4Zm.13 0h.088v4h-.088v-4Zm.088 0h.043v4h-.043v-4Zm.043 0h.218v4h-.218v-4Zm.218 0h.087v4h-.087v-4Zm.087 0h.13v4h-.13v-4Zm.13 0h.043v4h-.043v-4Zm.043 0h.088v4h-.088v-4Zm.088 0h.13v4h-.13v-4Zm.13 0h.043v4h-.042v-4Zm-.568.096.131-.042 1.222 3.809-.131.042-1.222-3.809Zm.742-.138h.087v4h-.087v-4Zm.087 0h.044v4h-.044v-4Zm.044 0h.13v4h-.13v-4Zm.13 0h.087v4h-.087v-4Zm.087 0h.044v4h-.044v-4Zm.044 0H29.099a1.256 1.256 0 0 0-.266.057l1.25 3.8c-.496.163-1.02.143-1.06.143v-4Zm.28-.037c3.046-.238 5.937-1.066 8.486-2.499l1.96 3.487c-3.105 1.746-6.568 2.721-10.135 3l-.312-3.988ZM56.86 102.83c-.932 10.265-6.381 17.532-13.668 21.662l-1.972-3.48c6.204-3.516 10.849-9.65 11.656-18.543l3.984.361Zm-13.638 21.644-.217.129-2.033-3.445.217-.128 2.033 3.444Zm.171-.17-.043.043-2.81-2.847.044-.043 2.81 2.847Zm-.48.369c-3.828 2.121-8.102 3.354-12.396 3.764l-.38-3.982c3.799-.363 7.534-1.451 10.839-3.281l1.938 3.499Zm-12.586 3.773h-.173v-4h.173v4Zm.306-.058-.175.043-.958-3.884.174-.043.959 3.884Zm-.654.101h-.174v-4h.174v4Zm-.174 0h-.174v-4h.174v4Zm.308-.059-.174.043-.964-3.882.174-.043.964 3.882Zm-.656.102h-.174v-4h.174v4Zm-.174 0h-.217v-4h.217v4Zm-.217 0h-.175v-4h.175v4Zm-.175 0h-.13v-4h.13v4Zm1.257-.559-.044.042-2.774-2.882.044-.042 2.774 2.882Zm-1.43.601h-.175v-4h.174v4Zm-.175 0h-.174v-4h.174v4Zm-.174 0h-.174v-4h.174v4Zm-.174 0h-.087v-4h.087v4Zm-.087 0h-.087v-4h.088v4Zm-.087 0h-.174v-4h.174v4Zm-.174 0h-.043v-4h.043v4Zm-.043 0H27.5v-4h.305v4Zm-.305 0H26.89v-4H27.5v4Zm-.61 0h-.043v-4h.043v4Zm-.043 0h-.086v-4h.086v4Zm-.086 0H26.238v-4H26.76v4Zm-1.139-.097-.13-.042 1.232-3.806.13.042-1.232 3.806Zm.486.055h-.392v-4h.392v4Zm-.504-.003c-12.924-.729-25.631-9.008-27.417-24.97l3.975-.445c1.52 13.59 12.222 20.776 23.667 21.421l-.225 3.994Zm-27.43-25.192v-.043h4v.043h-4Zm.01.159-.043-.43 3.98-.404.043.43-3.98.404Zm-.032-.345-.044-.3 3.959-.575.043.3-3.958.575Zm-.065-.588v-.343h4v.343h-4Zm.04.056c-.09-.444-.083-.861-.083-1.044h4c0 .116 0 .173.003.221.002.042.004.044 0 .025l-3.92.798Zm-.083-1.044v-.214h4v.214h-4Zm.04.183c-.089-.435-.084-.792-.084-.999h4a9.534 9.534 0 0 0 .002.188l.002.017-3.92.794Zm-.084-.999v-.128h4v.128h-4Zm0-.128V99.857h4V100.631h-4Zm0-.774v-.128h4v.128h-4Zm0-.128V63.347h4v36.382h-4Zm0-36.382V26.922h4v36.425h-4Zm0-36.425v-.086h4v.086h-4Zm0-.086C-2 13.14 5.753 4.2 15.63.319l1.462 3.723C8.607 7.376 2 14.931 2 26.836h-4ZM15.614.326c3.78-1.52 7.864-2.25 11.886-2.25v4c-3.548 0-7.122.645-10.393 1.96L15.614.326ZM27.5-1.925c4.025 0 8.066.73 11.842 2.25l-1.493 3.71c-3.273-1.316-6.804-1.96-10.35-1.96v-4ZM38.596.18A2.225 2.225 0 0 1 39.75.5c.016.01-.009-.006-.044-.023l-1.788 3.578c-.078-.04-.141-.076-.16-.087-.036-.02.007.005.057.03a1.734 1.734 0 0 0 .78.182v-4Zm.965.231C49.299 4.34 56.953 13.232 57 26.829l-4 .014c-.04-11.83-6.571-19.348-14.935-22.721L39.56.412ZM57 26.836v.086h-4v-.086h4Zm0 .086v36.425h-4V26.922h4Zm0 36.425v36.382h-4V63.347h4Zm0 36.382v.085h-4v-.085h4Zm0 .085v.043h-4v-.043h4Zm0 .043V100.416h-4V99.858h4Zm0 .559v.042h-4v-.042h4Zm0 .042c0 .123-.008.232-.014.31l-.02.194a4.269 4.269 0 0 0-.01.093c-.002.016 0-.001 0-.038h-4c0-.122.008-.231.015-.309.006-.077.015-.151.02-.194l.01-.093-.001.037h4Zm-.044.559V101.532h-4V101.017h4Zm-.04.912-.043.216-3.92-.794.043-.216 3.92.794Zm-.003-.181v.257h-4v-.257h4Zm0 .257v.258h-4v-.258h4Zm-.013.482-.044.387-3.974-.449.043-.387 3.975.449Zm-20.827-5.465c0-2.95 2.418-5.221 5.264-5.221v4c-.722 0-1.264.564-1.264 1.22h-4Zm5.264-5.221c2.907 0 5.263 2.289 5.263 5.22h-4c0-.674-.516-1.22-1.263-1.22v-4Zm5.263 5.22c0 6.072-2.422 10.841-6.139 14.021l-2.6-3.039c2.81-2.405 4.739-6.055 4.739-10.981h4Zm-6.129 14.013c-3.62 3.138-8.364 4.697-12.971 4.697v-4c3.747 0 7.532-1.276 10.35-3.72l2.621 3.023ZM27.5 115.731c-2.924 0-5.264-2.348-5.264-5.221h4c0 .65.534 1.221 1.264 1.221v4Zm-5.264-5.221c0-2.933 2.356-5.222 5.264-5.222v4c-.747 0-1.264.546-1.264 1.222h-4Zm5.264-5.222c2.304 0 4.505-.737 6.034-2.08l2.639 3.007c-2.386 2.094-5.58 3.073-8.674 3.073v-4Zm6.053-2.096c1.474-1.261 2.52-3.22 2.52-6.17h4c0 4.009-1.477 7.119-3.92 9.209l-2.6-3.039Z" fill="#fff" mask="url(#a)"/></svg>