<svg width="100" height="145" fill="none" xmlns="http://www.w3.org/2000/svg"><mask id="a" fill="#fff"><path d="M76 133.6c.6.3 1.1.8 1.4 1.5l.1.4a9.5 9.5 0 0 0 13.2 0 9.1 9.1 0 0 0 0-13 9.4 9.4 0 0 0-13.2 0 9 9 0 0 0-1.5 11ZM71.7 7c-.3-.3-.8-.5-1.3-.5s-1 .2-1.3.5c-.3.4-.5.8-.5 1.3s.2 1 .5 1.3c.4.3.8.5 1.3.5s1-.2 1.3-.5c.3-.3.5-.8.5-1.3s-.2-1-.5-1.3Zm-62 0c-.3-.3-.8-.5-1.3-.5s-1 .2-1.3.5c-.3.4-.6.8-.6 1.3s.3 1 .6 1.3c.3.3.8.5 1.3.5s1-.2 1.3-.5c.3-.3.5-.8.5-1.3s-.2-1-.5-1.3Zm74.4 106.3a16 16 0 0 1 11.2 4.6 15.4 15.4 0 0 1 0 22 16 16 0 0 1-22.1.4 37 37 0 0 1-12.7 2.4c-8.3 0-14.2-3.8-18.3-9.6A46.2 46.2 0 0 1 35 113c-1.5-10.6-.8-22 .5-30A37.5 37.5 0 0 1 14 73.3 36.3 36.3 0 0 1 2 48.7v-35a8.1 8.1 0 0 1 .4-11.2 8.3 8.3 0 0 1 6-2.4c2.3 0 4.4 1 6 2.4a8.3 8.3 0 0 1 2.4 5.8 8.3 8.3 0 0 1-8.2 8.2v32c.6 8 4.2 15 9.7 20.1a31 31 0 0 0 51.9-19.9V16.6c-2.2-.1-4.2-1-5.7-2.5a8.1 8.1 0 0 1 0-11.6 8.4 8.4 0 0 1 6-2.4c2.2 0 4.3 1 5.8 2.4a8.1 8.1 0 0 1 .4 11.2v35l-.1 1a36.2 36.2 0 0 1-11.7 23.6c-6 5.6-14 9.2-22.8 9.8-1.4 7.4-2.1 18.6-.6 29a40 40 0 0 0 6 17.3c3 4.2 7.2 6.8 13 6.9 2.6 0 5.6-.4 8.9-1.5a15.5 15.5 0 0 1 3.5-17 16 16 0 0 1 11.2-4.5Z"/></mask><path d="M76 133.6c.6.3 1.1.8 1.4 1.5l.1.4a9.5 9.5 0 0 0 13.2 0 9.1 9.1 0 0 0 0-13 9.4 9.4 0 0 0-13.2 0 9 9 0 0 0-1.5 11ZM71.7 7c-.3-.3-.8-.5-1.3-.5s-1 .2-1.3.5c-.3.4-.5.8-.5 1.3s.2 1 .5 1.3c.4.3.8.5 1.3.5s1-.2 1.3-.5c.3-.3.5-.8.5-1.3s-.2-1-.5-1.3Zm-62 0c-.3-.3-.8-.5-1.3-.5s-1 .2-1.3.5c-.3.4-.6.8-.6 1.3s.3 1 .6 1.3c.3.3.8.5 1.3.5s1-.2 1.3-.5c.3-.3.5-.8.5-1.3s-.2-1-.5-1.3Zm74.4 106.3a16 16 0 0 1 11.2 4.6 15.4 15.4 0 0 1 0 22 16 16 0 0 1-22.1.4 37 37 0 0 1-12.7 2.4c-8.3 0-14.2-3.8-18.3-9.6A46.2 46.2 0 0 1 35 113c-1.5-10.6-.8-22 .5-30A37.5 37.5 0 0 1 14 73.3 36.3 36.3 0 0 1 2 48.7v-35a8.1 8.1 0 0 1 .4-11.2 8.3 8.3 0 0 1 6-2.4c2.3 0 4.4 1 6 2.4a8.3 8.3 0 0 1 2.4 5.8 8.3 8.3 0 0 1-8.2 8.2v32c.6 8 4.2 15 9.7 20.1a31 31 0 0 0 51.9-19.9V16.6c-2.2-.1-4.2-1-5.7-2.5a8.1 8.1 0 0 1 0-11.6 8.4 8.4 0 0 1 6-2.4c2.2 0 4.3 1 5.8 2.4a8.1 8.1 0 0 1 .4 11.2v35l-.1 1a36.2 36.2 0 0 1-11.7 23.6c-6 5.6-14 9.2-22.8 9.8-1.4 7.4-2.1 18.6-.6 29a40 40 0 0 0 6 17.3c3 4.2 7.2 6.8 13 6.9 2.6 0 5.6-.4 8.9-1.5a15.5 15.5 0 0 1 3.5-17 16 16 0 0 1 11.2-4.5Z" fill="#1A1919"/><path d="m76 133.6-1 1.7-.4-.3-.3-.4 1.7-1Zm1.4 1.5-1.7 1.2-.1-.2v-.3l1.8-.7Zm.1.4-1.4 1.4-.6-.6v-.8h2Zm13.2 0 1.4 1.4-1.4-1.5ZM71.7 7l1.4-1.4.1.1L71.7 7Zm-2.6 2.6-1.3 1.5L69 9.5Zm2.6 0 1.5 1.3v.1l-.2.1-1.3-1.5ZM9.7 7l1.4-1.4.1.1L9.7 7ZM7.1 7l1.5 1.4h-.1L7.1 7Zm0 2.6 1.4-1.4-1.4 1.4Zm2.6 0 1.5 1.3v.1l-.2.1-1.3-1.5ZM95.3 118l1.4-1.4-1.4 1.4Zm0 22-1.4-1.4 1.4 1.5Zm-22.1.4-.7-2 1.1-.3 1 .8-1.4 1.5Zm-12.7 2.4v2-2Zm-18.3-9.6 1.6-1.2-1.6 1.2ZM35 113l-2 .3 2-.3Zm.5-30 .2-2 2.1.2-.3 2.2-2-.4ZM14 73.3l-1.4 1.5 1.4-1.5ZM2.2 49.7 4 49v.4l-2 .2Zm-.2-36 1.6-1.3.4.6v.7H2Zm.5-11.2L3.9 4 2.5 2.5Zm11.8 0 1.4-1.4-1.4 1.4Zm0 11.6 1.5 1.4-1.5-1.4Zm-5.7 2.4h-2v-2h2v2Zm0 31.6-2 .5V48h2Zm0 .4 2-.6v.5l-2 .1Zm9.7 20.1 1.4-1.4-1.4 1.4Zm51.9-19.9h2v.2l-2-.2Zm0-.6h2v.5l-2-.5Zm0-31.6v-2h2v2h-2Zm-5.7-2.4 1.4-1.4-1.4 1.4Zm0-11.6L65.9 4l-1.4-1.4Zm11.8 0L75 4l1.4-1.4Zm.4 11.2h-2V13l.5-.5 1.5 1.3Zm-.1 36-2-.2V49l2 .6ZM64.9 73.3l-1.3-1.5 1.3 1.5Zm-22.8 9.8-2-.3.3-1.5 1.5-.1.2 2Zm-.6 29-2 .3 2-.3Zm6 17.3 1.7-1.1-1.7 1.1Zm13 6.9v-2 2Zm8.9-1.5 1.8-.8.8 2-2 .7-.6-2Zm3.5-17-1.4-1.3 1.4 1.4Zm4.2 14c.8.6 1.7 1.4 2.2 2.6l-3.8 1.4-.5-.5 2-3.4Zm2 2.2c0 .2.4.7.4 1.5h-4l.1.6.1.2L79 134Zm-.2 0a7.5 7.5 0 0 0 5.2 2.1v4c-3.1 0-6-1.2-8-3.2L79 134Zm5.2 2.1c2 0 3.9-.8 5.2-2.1l2.8 2.9c-2 2-4.9 3.2-8 3.2v-4Zm5.2-2.1a7.1 7.1 0 0 0 2.2-5h4c0 3-1.3 5.8-3.4 7.9l-2.8-2.9Zm2.2-5a7 7 0 0 0-2.2-5.2l2.8-2.8c2 2 3.4 4.8 3.4 8h-4Zm-2.2-5.2a7.4 7.4 0 0 0-5.2-2v-4c3.1 0 6 1.2 8 3.2l-2.8 2.8Zm-5.2-2c-2 0-3.9.7-5.2 2L76 121c2-2 4.9-3.3 8-3.3v4Zm-5.2 2a7 7 0 0 0-2.2 5.1h-4c0-3.1 1.3-5.9 3.4-8l2.8 3Zm-2.2 5.1a7 7 0 0 0 1 3.7l-3.4 2a11 11 0 0 1-1.6-5.7h4ZM70.3 8.5h.1v-4c1 0 2 .4 2.7 1.1l-2.8 2.9Zm.1 0a.3.3 0 0 0 .1 0l-2.8-2.9c.8-.7 1.7-1 2.7-1v4Zm.1 0v-.1s0-.1 0 0h-4c0-1 .5-2 1.2-2.8l2.8 2.9Zm0-.2a.4.4 0 0 0 0-.1L67.7 11a3.7 3.7 0 0 1-1.1-2.7h4Zm0-.2v4a4 4 0 0 1-2.7-1l2.6-3Zm0 0a.1.1 0 0 0-.1 0l2.6 3a4 4 0 0 1-2.6 1v-4Zm-.3.2h4a4 4 0 0 1-1 2.6l-3-2.6Zm0 0a.2.2 0 0 0 0 .1l3-2.7a4 4 0 0 1 1 2.6h-4Zm-61.9.2h.1v-4c1 0 2 .4 2.7 1.1L8.3 8.5Zm.1 0 .2-.1-3-2.7c.8-.9 1.9-1.2 2.8-1.2v4Zm.1 0a.3.3 0 0 0 0-.2h-4c0-1.1.5-2 1.2-2.7l2.8 2.9Zm0-.2v-.1L5.7 11a3.8 3.8 0 0 1-1.2-2.7h4Zm0-.1v4c-1.1 0-2.1-.5-2.8-1.2l2.8-2.8Zm0 0h-.1a.2.2 0 0 0 0-.1l2.6 3a4 4 0 0 1-2.6 1v-4Zm-.3 0v.1h4a4 4 0 0 1-1 2.6l-3-2.6Zm0 .1a.2.2 0 0 0 0 .1l3-2.7a4 4 0 0 1 1 2.6h-4Zm75.9 103c5 0 9.4 2 12.6 5.2l-2.8 2.8a14 14 0 0 0-9.8-4v-4Zm12.6 5.2c3.3 3.1 5.3 7.5 5.3 12.4h-4c0-3.7-1.5-7.1-4-9.6l2.7-2.8Zm5.3 12.4c0 5-2 9.3-5.3 12.5l-2.8-2.9c2.6-2.4 4.1-5.8 4.1-9.6h4Zm-5.3 12.5a18 18 0 0 1-12.6 5.1v-4a14 14 0 0 0 9.8-4l2.8 2.9Zm-12.6 5.1a18 18 0 0 1-12.3-4.8l2.7-3a14 14 0 0 0 9.6 3.8v4Zm-10.3-4.4a39 39 0 0 1-13.3 2.6v-4a35 35 0 0 0 12-2.3l1.3 3.7Zm-13.3 2.6c-9 0-15.5-4.2-20-10.4L44 132c3.7 5.3 9 8.6 16.6 8.7v4Zm-19.9-10.4a48.1 48.1 0 0 1-7.5-21l4-.6c1 7.3 3.1 14.2 6.7 19.2l-3.2 2.4Zm-7.5-21c-1.6-10.9-1-22.5.4-30.6l4 .7c-1.3 7.7-2 19-.5 29.3l-4 .6ZM35.3 85a39.5 39.5 0 0 1-22.8-10.2l2.7-3c5.5 5.1 12.6 8.4 20.5 9.2l-.4 4ZM12.5 74.8a38.3 38.3 0 0 1-12.3-25l4-.3c.7 8.8 4.8 16.6 11 22.3l-2.7 3ZM.3 50.2 0 48.7h4l.1.4-3.8 1.1ZM0 48.7v-2h4v2H0Zm0-2v-.2h4v.1H0Zm0-.2V13.7h4v32.8H0ZM.5 15A10.2 10.2 0 0 1-2 8.3h4c0 1.6.6 3 1.6 4.1L.6 15ZM-2 8.3C-2 5.5-.8 3 1 1.1L4 3.9A6.1 6.1 0 0 0 2 8.3h-4Zm3-7.2c2-1.9 4.6-3 7.4-3v4C6.6 2.1 5 2.8 4 4L1.1 1.1Zm7.4-3c2.8 0 5.4 1.1 7.3 3L13 3.9a6.4 6.4 0 0 0-4.5-1.8v-4Zm7.4 3c1.8 1.8 3 4.4 3 7.2h-4c0-1.7-.7-3.2-1.9-4.4l2.9-2.8Zm3 7.2c0 2.9-1.2 5.4-3 7.2l-2.9-2.8a6.3 6.3 0 0 0 1.9-4.4h4Zm-3 7.3c-2 1.8-4.4 2.9-7.2 3v-4c1.7 0 3.2-.8 4.3-1.9l2.8 2.9Zm-5.2 1v30h-4v-30h4Zm0 30h-4 4Zm0 0v1.5h-4v-1.5h4Zm0 1v.4-.1L6.8 49l-.1-.5 3.8-1Zm0 .8c.5 7.4 3.9 14 9 18.8l-2.6 3c-6-5.5-9.8-13-10.3-21.6l4-.2Zm9.1 18.8a29 29 0 0 0 19.7 7.6v4A33 33 0 0 1 17 70.1l2.7-3Zm19.7 7.6c7.6 0 14.6-3 19.7-7.6l2.7 3a33.1 33.1 0 0 1-22.4 8.6v-4ZM59 67.2a28 28 0 0 0 9-18.6l4 .3A32 32 0 0 1 61.8 70l-2.7-3Zm9-18.5c0-.2 0-.7.2-1.1l3.8 1v-.1.2h-4Zm.1-.6v-1.5h4v1.5h-4Zm0-1.5h4-4Zm0 0v-30h4v30h-4Zm2-28c-2.8-.1-5.3-1.2-7.1-3l2.8-2.9a6.3 6.3 0 0 0 4.3 1.8v4Zm-7.1-3c-2-1.9-3-4.5-3-7.3h4c0 1.7.6 3.3 1.8 4.4L63 15.6Zm-3-7.3c0-2.8 1-5.4 3-7.2l2.8 2.8A6.1 6.1 0 0 0 64 8.3h-4Zm3-7.2c1.9-1.9 4.5-3 7.3-3v4c-1.8 0-3.4.7-4.5 1.8L63 1.1Zm7.3-3c2.9 0 5.4 1.1 7.3 3L75 3.9a6.4 6.4 0 0 0-4.5-1.8v-4Zm7.3 3c2 1.8 3 4.4 3 7.2h-4c0-1.7-.6-3.2-1.8-4.4l2.8-2.8Zm3 7.2c0 2.6-.8 5-2.5 6.8l-3-2.7a6 6 0 0 0 1.6-4h4Zm-2 5.4v32.8h-4V13.7h4Zm0 32.8v.1h-4 4Zm0 .1v2.1h-4v-2h4Zm0 2.1c0 .5 0 1-.2 1.5l-3.8-1.1v-.4h4Zm-.1 1.1a38.2 38.2 0 0 1-12.3 25l-2.7-3a34.2 34.2 0 0 0 11-22.3l4 .3Zm-12.3 25c-6.4 5.9-14.8 9.7-24 10.3l-.4-4c8.4-.6 16-4 21.7-9.3l2.7 3ZM44 83.5c-1.4 7.2-2 18.2-.6 28.3l-4 .6c-1.5-10.7-.8-22 .6-29.6l4 .7Zm-.6 28.3c.9 6.5 2.7 12.4 5.7 16.5l-3.3 2.3a42 42 0 0 1-6.4-18.2l4-.6Zm5.7 16.5c2.6 3.7 6.3 6 11.3 6v4c-6.5 0-11.3-3-14.6-7.7l3.3-2.3Zm11.4 6c2.3 0 5-.4 8.2-1.4l1.2 3.8a29.4 29.4 0 0 1-9.5 1.6v-4Zm7 1.2c-1-2-1.4-4.2-1.4-6.6h4c0 1.8.4 3.6 1 5.1l-3.7 1.5Zm-1.4-6.6c0-4.9 2-9.3 5.3-12.4l2.8 2.8c-2.6 2.5-4.1 5.9-4.1 9.6h-4Zm5.3-12.4a18 18 0 0 1 12.6-5.2v4a14 14 0 0 0-9.8 4l-2.8-2.8Z" fill="#fff" mask="url(#a)"/></svg>