<svg width="56" height="82" viewBox="0 0 56 82" fill="none" xmlns="http://www.w3.org/2000/svg">
<mask id="path-1-inside-1_1_614" fill="white">
<path d="M42.5794 75.7816C42.8964 75.976 43.1895 76.2677 43.3358 76.6558C43.3847 76.7289 43.4092 76.7777 43.4092 76.85C44.3609 77.7735 45.654 78.3565 47.0939 78.3565C48.5333 78.3565 49.8509 77.7735 50.8025 76.8265C51.7541 75.8792 52.3398 74.5671 52.3398 73.1344C52.3398 71.6766 51.7541 70.3895 50.8025 69.4422C49.8509 68.495 48.5333 67.9121 47.0939 67.9121C45.654 67.9121 44.3364 68.495 43.3848 69.4422C42.4331 70.3895 41.8475 71.6766 41.8475 73.1344C41.8475 74.106 42.1161 75.0045 42.5794 75.7816ZM40.1639 3.93452C39.9687 3.7402 39.7245 3.64335 39.432 3.64335C39.1389 3.64335 38.8947 3.7402 38.6995 3.93452C38.5043 4.12885 38.4069 4.37189 38.4069 4.66368C38.4069 4.95486 38.5043 5.19791 38.6995 5.39223C38.8947 5.56218 39.1389 5.6834 39.432 5.6834C39.7245 5.6834 39.9687 5.56218 40.1639 5.39223C40.3347 5.19791 40.4565 4.95486 40.4565 4.66368C40.4565 4.37189 40.3347 4.12885 40.1639 3.93452ZM5.44108 3.93452C5.24586 3.7402 4.97782 3.64335 4.70916 3.64335C4.41664 3.64335 4.14798 3.7402 3.97724 3.93452C3.78202 4.12885 3.66023 4.37189 3.66023 4.66368C3.66023 4.95486 3.78202 5.19791 3.97724 5.39223C4.14798 5.56218 4.41664 5.6834 4.70916 5.6834C4.97782 5.6834 5.24586 5.56218 5.44108 5.39223C5.61182 5.19791 5.73422 4.95486 5.73422 4.66368C5.73422 4.37189 5.61182 4.12885 5.44108 3.93452ZM47.0939 64.2687C49.5584 64.2687 51.7786 65.2647 53.3893 66.8674C54.9994 68.4706 56 70.6813 56 73.1344C56 75.5874 54.9994 77.798 53.3893 79.4006C51.7786 81.0039 49.5584 82 47.0939 82C44.7268 82 42.5794 81.0765 40.9693 79.5705C38.3335 80.5423 35.9915 80.9551 33.893 80.9551C29.2567 80.9064 25.9379 78.7934 23.6443 75.5142C21.473 72.4539 20.2282 68.3494 19.6181 64.0744C18.7644 58.0505 19.1303 51.5654 19.8867 47.0723C15.2259 46.5862 11.0045 44.5943 7.75924 41.5583C4.09901 38.1336 1.65908 33.4218 1.21968 28.1264C1.17133 27.9565 1.14686 27.7865 1.14686 27.5922V26.4019V26.3538V7.72346C0.439412 6.89806 0 5.82899 0 4.66368C0 3.37593 0.536701 2.21001 1.39102 1.36024C2.22024 0.509865 3.41606 0 4.70916 0C6.00226 0 7.17358 0.509865 8.0279 1.36024C8.85713 2.21001 9.39445 3.37593 9.39445 4.66368C9.39445 5.95082 8.85713 7.11674 8.0279 7.96651C7.19806 8.79252 6.0512 9.30238 4.80705 9.32675V26.3538V26.4019V27.2279C4.83153 27.3248 4.83153 27.3979 4.8554 27.471C5.12406 31.9885 7.14909 36.0204 10.2726 38.9109C13.3472 41.7769 17.4951 43.5502 22.058 43.5502C26.6215 43.5502 30.794 41.7769 33.8686 38.9109C36.9431 36.0448 38.9681 32.0372 39.2851 27.5922C39.2851 27.4466 39.2851 27.3248 39.3096 27.2279V26.4019V26.3538V9.32675C38.0655 9.30238 36.9431 8.79252 36.1133 7.96651C35.2589 7.11674 34.7467 5.95082 34.7467 4.66368C34.7467 3.37593 35.2589 2.21001 36.1133 1.36024C36.9676 0.509865 38.1383 0 39.432 0C40.7251 0 41.8964 0.509865 42.7501 1.36024C43.6045 2.21001 44.1167 3.37593 44.1167 4.66368C44.1167 5.82899 43.7018 6.89806 42.9698 7.72346V26.3538V26.4019V27.5922C42.9698 27.7865 42.9454 27.9565 42.8964 28.1264C42.4576 33.3974 40.0415 38.1336 36.3574 41.5583C32.9653 44.7405 28.5003 46.7805 23.5714 47.1448C22.8144 51.3224 22.4001 57.6862 23.2294 63.5645C23.7667 67.3291 24.8156 70.8756 26.6215 73.4254C28.2806 75.7816 30.6477 77.2876 33.893 77.3119C35.3569 77.3361 36.9915 77.069 38.8463 76.4622C38.4314 75.4419 38.1872 74.3001 38.1872 73.1344C38.1872 70.6813 39.1878 68.4706 40.7979 66.8674C42.4087 65.2647 44.6289 64.2687 47.0939 64.2687Z"/>
</mask>
<path d="M42.5794 75.7816C42.8964 75.976 43.1895 76.2677 43.3358 76.6558C43.3847 76.7289 43.4092 76.7777 43.4092 76.85C44.3609 77.7735 45.654 78.3565 47.0939 78.3565C48.5333 78.3565 49.8509 77.7735 50.8025 76.8265C51.7541 75.8792 52.3398 74.5671 52.3398 73.1344C52.3398 71.6766 51.7541 70.3895 50.8025 69.4422C49.8509 68.495 48.5333 67.9121 47.0939 67.9121C45.654 67.9121 44.3364 68.495 43.3848 69.4422C42.4331 70.3895 41.8475 71.6766 41.8475 73.1344C41.8475 74.106 42.1161 75.0045 42.5794 75.7816ZM40.1639 3.93452C39.9687 3.7402 39.7245 3.64335 39.432 3.64335C39.1389 3.64335 38.8947 3.7402 38.6995 3.93452C38.5043 4.12885 38.4069 4.37189 38.4069 4.66368C38.4069 4.95486 38.5043 5.19791 38.6995 5.39223C38.8947 5.56218 39.1389 5.6834 39.432 5.6834C39.7245 5.6834 39.9687 5.56218 40.1639 5.39223C40.3347 5.19791 40.4565 4.95486 40.4565 4.66368C40.4565 4.37189 40.3347 4.12885 40.1639 3.93452ZM5.44108 3.93452C5.24586 3.7402 4.97782 3.64335 4.70916 3.64335C4.41664 3.64335 4.14798 3.7402 3.97724 3.93452C3.78202 4.12885 3.66023 4.37189 3.66023 4.66368C3.66023 4.95486 3.78202 5.19791 3.97724 5.39223C4.14798 5.56218 4.41664 5.6834 4.70916 5.6834C4.97782 5.6834 5.24586 5.56218 5.44108 5.39223C5.61182 5.19791 5.73422 4.95486 5.73422 4.66368C5.73422 4.37189 5.61182 4.12885 5.44108 3.93452ZM47.0939 64.2687C49.5584 64.2687 51.7786 65.2647 53.3893 66.8674C54.9994 68.4706 56 70.6813 56 73.1344C56 75.5874 54.9994 77.798 53.3893 79.4006C51.7786 81.0039 49.5584 82 47.0939 82C44.7268 82 42.5794 81.0765 40.9693 79.5705C38.3335 80.5423 35.9915 80.9551 33.893 80.9551C29.2567 80.9064 25.9379 78.7934 23.6443 75.5142C21.473 72.4539 20.2282 68.3494 19.6181 64.0744C18.7644 58.0505 19.1303 51.5654 19.8867 47.0723C15.2259 46.5862 11.0045 44.5943 7.75924 41.5583C4.09901 38.1336 1.65908 33.4218 1.21968 28.1264C1.17133 27.9565 1.14686 27.7865 1.14686 27.5922V26.4019V26.3538V7.72346C0.439412 6.89806 0 5.82899 0 4.66368C0 3.37593 0.536701 2.21001 1.39102 1.36024C2.22024 0.509865 3.41606 0 4.70916 0C6.00226 0 7.17358 0.509865 8.0279 1.36024C8.85713 2.21001 9.39445 3.37593 9.39445 4.66368C9.39445 5.95082 8.85713 7.11674 8.0279 7.96651C7.19806 8.79252 6.0512 9.30238 4.80705 9.32675V26.3538V26.4019V27.2279C4.83153 27.3248 4.83153 27.3979 4.8554 27.471C5.12406 31.9885 7.14909 36.0204 10.2726 38.9109C13.3472 41.7769 17.4951 43.5502 22.058 43.5502C26.6215 43.5502 30.794 41.7769 33.8686 38.9109C36.9431 36.0448 38.9681 32.0372 39.2851 27.5922C39.2851 27.4466 39.2851 27.3248 39.3096 27.2279V26.4019V26.3538V9.32675C38.0655 9.30238 36.9431 8.79252 36.1133 7.96651C35.2589 7.11674 34.7467 5.95082 34.7467 4.66368C34.7467 3.37593 35.2589 2.21001 36.1133 1.36024C36.9676 0.509865 38.1383 0 39.432 0C40.7251 0 41.8964 0.509865 42.7501 1.36024C43.6045 2.21001 44.1167 3.37593 44.1167 4.66368C44.1167 5.82899 43.7018 6.89806 42.9698 7.72346V26.3538V26.4019V27.5922C42.9698 27.7865 42.9454 27.9565 42.8964 28.1264C42.4576 33.3974 40.0415 38.1336 36.3574 41.5583C32.9653 44.7405 28.5003 46.7805 23.5714 47.1448C22.8144 51.3224 22.4001 57.6862 23.2294 63.5645C23.7667 67.3291 24.8156 70.8756 26.6215 73.4254C28.2806 75.7816 30.6477 77.2876 33.893 77.3119C35.3569 77.3361 36.9915 77.069 38.8463 76.4622C38.4314 75.4419 38.1872 74.3001 38.1872 73.1344C38.1872 70.6813 39.1878 68.4706 40.7979 66.8674C42.4087 65.2647 44.6289 64.2687 47.0939 64.2687Z" fill="#1A1919"/>
<path d="M42.5794 75.7816L42.0567 76.6341L41.8466 76.5053L41.7204 76.2937L42.5794 75.7816ZM43.3358 76.6558L42.5049 77.2123L42.4407 77.1165L42.4 77.0085L43.3358 76.6558ZM43.4092 76.85L42.7128 77.5677L42.4092 77.2731V76.85H43.4092ZM50.8025 76.8265L51.508 77.5352L51.5079 77.5353L50.8025 76.8265ZM40.1639 3.93452L40.8694 3.22578L40.8931 3.24937L40.9151 3.27447L40.1639 3.93452ZM38.6995 5.39223L38.0429 6.14645L38.0177 6.12453L37.994 6.10097L38.6995 5.39223ZM40.1639 5.39223L40.9151 6.05228L40.871 6.10253L40.8205 6.14645L40.1639 5.39223ZM5.44108 3.93452L6.14655 3.22578L6.17024 3.24937L6.19229 3.27447L5.44108 3.93452ZM3.97724 3.93452L4.72845 4.59459L4.7064 4.61969L4.68271 4.64326L3.97724 3.93452ZM3.97724 5.39223L3.27177 6.10097L3.97724 5.39223ZM5.44108 5.39223L6.19229 6.05228L6.14814 6.10253L6.09769 6.14645L5.44108 5.39223ZM53.3893 66.8674L54.0947 66.1585L54.0949 66.1588L53.3893 66.8674ZM53.3893 79.4006L52.6839 78.6919L52.6839 78.6919L53.3893 79.4006ZM40.9693 79.5705L40.6234 78.6323L41.202 78.4189L41.6524 78.8402L40.9693 79.5705ZM33.893 80.9551V81.9552L33.8825 81.9551L33.893 80.9551ZM23.6443 75.5142L24.4599 74.9355L24.4637 74.941L23.6443 75.5142ZM19.6181 64.0744L18.6281 64.2157L18.628 64.2147L19.6181 64.0744ZM19.8867 47.0723L19.9905 46.0777L21.0497 46.1882L20.8729 47.2383L19.8867 47.0723ZM7.75924 41.5583L7.07607 42.2885L7.07602 42.2885L7.75924 41.5583ZM1.21968 28.1264L2.18152 27.8528L2.20819 27.9466L2.21625 28.0437L1.21968 28.1264ZM1.14686 7.72346L1.90613 7.07269L2.14686 7.35355V7.72346H1.14686ZM1.39102 1.36024L2.10697 2.0584L2.10165 2.06386L2.09624 2.06924L1.39102 1.36024ZM8.0279 1.36024L8.73337 0.651505L8.73853 0.656639L8.74361 0.661842L8.0279 1.36024ZM8.0279 7.96651L8.74361 8.66491L8.73853 8.67011L8.73337 8.67525L8.0279 7.96651ZM4.80705 9.32675H3.80705V8.34615L4.78747 8.32694L4.80705 9.32675ZM4.80705 27.2279L3.83754 27.473L3.80705 27.3523V27.2279H4.80705ZM4.8554 27.471L5.80601 27.1606L5.84599 27.283L5.85364 27.4116L4.8554 27.471ZM10.2726 38.9109L10.9518 38.1769L10.9545 38.1794L10.2726 38.9109ZM39.2851 27.5922H40.2851V27.6278L40.2826 27.6633L39.2851 27.5922ZM39.3096 27.2279H40.3096V27.3523L40.2791 27.473L39.3096 27.2279ZM39.3096 9.32675L39.3292 8.32694L40.3096 8.34615V9.32675H39.3096ZM36.1133 7.96651L36.8185 7.25751L36.8187 7.25777L36.1133 7.96651ZM36.1133 1.36024L36.8187 2.06898L36.8185 2.06924L36.1133 1.36024ZM42.7501 1.36024L42.0449 2.06924L42.0444 2.06873L42.7501 1.36024ZM42.9698 7.72346H41.9698V7.34394L42.2216 7.05999L42.9698 7.72346ZM42.8964 28.1264L41.8999 28.0435L41.9081 27.9448L41.9355 27.8496L42.8964 28.1264ZM36.3574 41.5583L35.6733 40.8289L35.6766 40.8258L36.3574 41.5583ZM23.5714 47.1448L22.5875 46.9665L22.7255 46.2046L23.4977 46.1475L23.5714 47.1448ZM23.2294 63.5645L22.2394 63.7058L22.2392 63.7042L23.2294 63.5645ZM26.6215 73.4254L27.4376 72.8475L27.4392 72.8497L26.6215 73.4254ZM33.893 77.3119L33.9005 76.3119L33.9096 76.312L33.893 77.3119ZM38.8463 76.4622L39.7727 76.0855L40.1768 77.0791L39.1573 77.4126L38.8463 76.4622ZM40.7979 66.8674L40.0923 66.1588L40.0926 66.1585L40.7979 66.8674ZM43.1021 74.9291C43.5545 75.2065 44.0272 75.6549 44.2715 76.3032L42.4 77.0085C42.3518 76.8806 42.2383 76.7455 42.0567 76.6341L43.1021 74.9291ZM44.1667 76.0994C44.2477 76.2204 44.4092 76.4746 44.4092 76.85H42.4092C42.4092 76.8895 42.4127 76.9366 42.4227 76.9886C42.4328 77.0409 42.4475 77.0876 42.4634 77.1271C42.4915 77.1968 42.5213 77.2368 42.5049 77.2123L44.1667 76.0994ZM44.1057 76.1324C44.8835 76.8872 45.9313 77.3565 47.0939 77.3565V79.3565C45.3766 79.3565 43.8382 78.6598 42.7128 77.5677L44.1057 76.1324ZM47.0939 77.3565C48.2597 77.3565 49.3262 76.8848 50.0971 76.1177L51.5079 77.5353C50.3756 78.6622 48.8069 79.3565 47.0939 79.3565V77.3565ZM50.097 76.1177C50.8678 75.3505 51.3398 74.2905 51.3398 73.1344H53.3398C53.3398 74.8437 52.6405 76.4078 51.508 77.5352L50.097 76.1177ZM51.3398 73.1344C51.3398 71.9557 50.8696 70.92 50.097 70.151L51.508 68.7335C52.6387 69.859 53.3398 71.3975 53.3398 73.1344H51.3398ZM50.097 70.151C49.3262 69.3837 48.2597 68.9121 47.0939 68.9121V66.9121C48.8069 66.9121 50.3756 67.6064 51.508 68.7335L50.097 70.151ZM47.0939 68.9121C45.9276 68.9121 44.8611 69.3837 44.0902 70.151L42.6793 68.7335C43.8117 67.6063 45.3804 66.9121 47.0939 66.9121V68.9121ZM44.0902 70.151C43.3177 70.92 42.8475 71.9557 42.8475 73.1344H40.8475C40.8475 71.3975 41.5486 69.859 42.6793 68.7335L44.0902 70.151ZM42.8475 73.1344C42.8475 73.9171 43.0629 74.6398 43.4384 75.2696L41.7204 76.2937C41.1693 75.3692 40.8475 74.2948 40.8475 73.1344H42.8475ZM39.4584 4.64326C39.4543 4.63916 39.4534 4.63893 39.4558 4.64053C39.4583 4.64219 39.4617 4.644 39.465 4.64533C39.4683 4.64663 39.4686 4.64633 39.4646 4.64559C39.4603 4.64482 39.4499 4.64335 39.432 4.64335V2.64335C39.9697 2.64335 40.4735 2.83175 40.8694 3.22578L39.4584 4.64326ZM39.432 4.64335C39.4139 4.64335 39.4033 4.64484 39.3989 4.64564C39.3947 4.64639 39.395 4.64671 39.3982 4.64541C39.4016 4.64407 39.405 4.64225 39.4076 4.64056C39.41 4.63895 39.4091 4.63916 39.4049 4.64326L37.994 3.22578C38.3901 2.83155 38.894 2.64335 39.432 2.64335V4.64335ZM39.4049 4.64326C39.4008 4.64738 39.4007 4.64819 39.4026 4.64546C39.4045 4.64262 39.4066 4.63875 39.4082 4.63475C39.4097 4.63084 39.4096 4.62978 39.409 4.63313C39.4084 4.6367 39.4069 4.64642 39.4069 4.66368H37.4069C37.4069 4.12417 37.5977 3.62029 37.994 3.22578L39.4049 4.64326ZM39.4069 4.66368C39.4069 4.68068 39.4083 4.69021 39.409 4.69366C39.4096 4.69689 39.4096 4.69579 39.4081 4.69188C39.4065 4.68788 39.4044 4.68404 39.4025 4.68124C39.4007 4.67854 39.4008 4.67937 39.4049 4.68349L37.994 6.10097C37.5979 5.70667 37.4069 5.2029 37.4069 4.66368H39.4069ZM39.3561 4.638C39.3875 4.66534 39.4087 4.6764 39.418 4.68031C39.4247 4.68311 39.4271 4.6834 39.432 4.6834V6.6834C38.8419 6.6834 38.3733 6.43408 38.0429 6.14645L39.3561 4.638ZM39.432 4.6834C39.4363 4.6834 39.4385 4.68323 39.4453 4.68039C39.4546 4.67645 39.4759 4.66536 39.5073 4.638L40.8205 6.14645C40.4904 6.43386 40.0218 6.6834 39.432 6.6834V4.6834ZM39.4127 4.73216C39.4401 4.70095 39.4509 4.68022 39.4544 4.672C39.4552 4.66998 39.4557 4.66859 39.456 4.66782C39.4562 4.66706 39.4563 4.66668 39.4563 4.6666C39.4563 4.66653 39.4563 4.66643 39.4564 4.66618C39.4564 4.66594 39.4565 4.66515 39.4565 4.66368H41.4565C41.4565 5.25511 41.2038 5.72369 40.9151 6.05228L39.4127 4.73216ZM39.4565 4.66368C39.4565 4.66206 39.4564 4.66116 39.4563 4.66081C39.4563 4.66046 39.4563 4.66029 39.4562 4.66016C39.4562 4.66013 39.4559 4.65847 39.4543 4.65462C39.4508 4.64644 39.4401 4.62579 39.4127 4.59459L40.9151 3.27447C41.2041 3.60332 41.4565 4.07193 41.4565 4.66368H39.4565ZM4.73561 4.64326C4.74205 4.64967 4.74545 4.65011 4.74089 4.64834C4.73553 4.64626 4.72441 4.64335 4.70916 4.64335V2.64335C5.21059 2.64335 5.74264 2.82374 6.14655 3.22578L4.73561 4.64326ZM4.70916 4.64335C4.67103 4.64335 4.65522 4.64992 4.65911 4.64841C4.6645 4.64632 4.69478 4.63292 4.72845 4.59459L3.22603 3.27447C3.6365 2.80731 4.21433 2.64335 4.70916 2.64335V4.64335ZM4.68271 4.64326C4.65914 4.66673 4.65523 4.67783 4.65699 4.67394C4.65777 4.6722 4.6589 4.66911 4.65968 4.6655C4.66047 4.66186 4.66023 4.66082 4.66023 4.66368H2.66023C2.66023 4.06396 2.91995 3.57598 3.27177 3.22578L4.68271 4.64326ZM4.66023 4.66368C4.66023 4.66624 4.66044 4.66501 4.65963 4.66125C4.65882 4.65753 4.65767 4.6544 4.65689 4.65267C4.65516 4.64883 4.65912 4.66 4.68271 4.68349L3.27177 6.10097C2.92021 5.75103 2.66023 5.2631 2.66023 4.66368H4.66023ZM4.68271 4.68349C4.6787 4.6795 4.67566 4.67689 4.6738 4.67538C4.67193 4.67388 4.67094 4.67323 4.67093 4.67323C4.67091 4.67322 4.6716 4.67367 4.673 4.6744C4.6744 4.67514 4.67627 4.67604 4.6786 4.677C4.68339 4.67897 4.68887 4.68068 4.69455 4.68184C4.70014 4.68298 4.70507 4.6834 4.70916 4.6834V6.6834C4.15308 6.6834 3.63052 6.45806 3.27177 6.10097L4.68271 4.68349ZM4.70916 4.6834C4.6945 4.6834 4.6993 4.6862 4.7214 4.67708C4.74345 4.66798 4.7667 4.65347 4.78447 4.638L6.09769 6.14645C5.75743 6.44268 5.26408 6.6834 4.70916 6.6834V4.6834ZM4.68987 4.73216C4.71772 4.70046 4.72866 4.67941 4.73224 4.67104C4.73311 4.66899 4.73359 4.66762 4.73383 4.66687C4.73395 4.66649 4.73403 4.66622 4.73407 4.66607C4.73411 4.66591 4.73413 4.66583 4.73413 4.66581C4.73414 4.66579 4.73413 4.6658 4.73413 4.66581C4.73413 4.66582 4.73413 4.6658 4.73414 4.66572C4.73415 4.66561 4.73422 4.66498 4.73422 4.66368H6.73422C6.73422 5.25642 6.47992 5.72494 6.19229 6.05228L4.68987 4.73216ZM4.73422 4.66368C4.73422 4.66223 4.73415 4.66148 4.73412 4.66127C4.7341 4.66106 4.73409 4.66099 4.73408 4.66094C4.73407 4.66089 4.73399 4.66053 4.73375 4.65977C4.7335 4.659 4.73302 4.65762 4.73215 4.65558C4.72859 4.64725 4.71771 4.62627 4.68987 4.59459L6.19229 3.27447C6.48016 3.60209 6.73422 4.07062 6.73422 4.66368H4.73422ZM47.0939 63.2687C49.8341 63.2687 52.3048 64.3775 54.0947 66.1585L52.684 67.5762C51.2524 66.1518 49.2826 65.2687 47.0939 65.2687V63.2687ZM54.0949 66.1588C55.8843 67.9405 57 70.4026 57 73.1344H55C55 70.96 54.1146 69.0008 52.6837 67.576L54.0949 66.1588ZM57 73.1344C57 75.8661 55.8843 78.3282 54.0948 80.1094L52.6839 78.6919C54.1146 77.2678 55 75.3088 55 73.1344H57ZM54.0948 80.1094C52.3049 81.891 49.8342 83 47.0939 83V81C49.2826 81 51.2523 80.1168 52.6839 78.6919L54.0948 80.1094ZM47.0939 83C44.4603 83 42.0719 81.9711 40.2862 80.3008L41.6524 78.8402C43.0869 80.1819 44.9934 81 47.0939 81V83ZM41.3152 80.5088C38.5844 81.5156 36.1252 81.9551 33.893 81.9551V79.9551C35.8578 79.9551 38.0826 79.569 40.6234 78.6323L41.3152 80.5088ZM33.8825 81.9551C28.8904 81.9026 25.2837 79.6027 22.8248 76.0873L24.4637 74.941C26.5922 77.984 29.623 79.9102 33.9035 79.9552L33.8825 81.9551ZM22.8287 76.0928C20.5281 72.8504 19.2495 68.5693 18.6281 64.2157L20.608 63.9331C21.207 68.1295 22.4178 72.0574 24.4598 74.9355L22.8287 76.0928ZM18.628 64.2147C17.7573 58.0712 18.1304 51.4812 18.9006 46.9063L20.8729 47.2383C20.1302 51.6496 19.7714 58.0297 20.6082 63.9341L18.628 64.2147ZM19.783 48.0669C14.9021 47.5579 10.4781 45.4711 7.07607 42.2885L8.4424 40.828C11.531 43.7174 15.5498 45.6146 19.9905 46.0777L19.783 48.0669ZM7.07602 42.2885C3.24398 38.7031 0.68405 33.7642 0.223102 28.2091L2.21625 28.0437C2.6341 33.0794 4.95404 37.5641 8.44245 40.828L7.07602 42.2885ZM0.257837 28.4C0.183707 28.1395 0.146856 27.8773 0.146856 27.5922H2.14686C2.14686 27.6957 2.15896 27.7735 2.18152 27.8528L0.257837 28.4ZM0.146856 27.5922V26.4019H2.14686V27.5922H0.146856ZM0.146856 26.4019V26.3538H2.14686V26.4019H0.146856ZM0.146856 26.3538V7.72346H2.14686V26.3538H0.146856ZM0.387579 8.37422C-0.463436 7.38131 -1 6.08517 -1 4.66368H1C1 5.57281 1.34226 6.41479 1.90613 7.07269L0.387579 8.37422ZM-1 4.66368C-1 3.09106 -0.343504 1.67508 0.685802 0.651253L2.09624 2.06924C1.41691 2.74495 1 3.6608 1 4.66368H-1ZM0.675064 0.662102C1.69874 -0.387688 3.15555 -1 4.70916 -1V1C3.67656 1 2.74175 1.40742 2.10697 2.0584L0.675064 0.662102ZM4.70916 -1C6.27114 -1 7.69484 -0.38224 8.73337 0.651505L7.32243 2.06898C6.65233 1.40197 5.73339 1 4.70916 1V-1ZM8.74361 0.661842C9.73857 1.68146 10.3944 3.09221 10.3944 4.66368H8.39445C8.39445 3.65966 7.97568 2.73857 7.3122 2.05865L8.74361 0.661842ZM10.3944 4.66368C10.3944 6.23462 9.73852 7.64535 8.74361 8.66491L7.3122 7.2681C7.97573 6.58813 8.39445 5.66703 8.39445 4.66368H10.3944ZM8.73337 8.67525C7.72422 9.67974 6.33297 10.2971 4.82663 10.3266L4.78747 8.32694C5.76943 8.30771 6.6719 7.9053 7.32243 7.25777L8.73337 8.67525ZM5.80705 9.32675V26.3538H3.80705V9.32675H5.80705ZM5.80705 26.3538V26.4019H3.80705V26.3538H5.80705ZM5.80705 26.4019V27.2279H3.80705V26.4019H5.80705ZM5.77657 26.9829C5.80267 27.0862 5.81543 27.1776 5.81996 27.2072C5.82292 27.2266 5.82294 27.2254 5.8217 27.2192C5.81999 27.2106 5.81534 27.1892 5.80601 27.1606L3.90479 27.7814C3.86428 27.6573 3.84844 27.5455 3.84295 27.5095C3.83539 27.4601 3.83592 27.4666 3.83754 27.473L5.77657 26.9829ZM5.85364 27.4116C6.10642 31.6621 8.01069 35.4553 10.9518 38.1769L9.59342 39.6448C6.28748 36.5856 4.1417 32.3148 3.85717 27.5304L5.85364 27.4116ZM10.9545 38.1794C13.8518 40.8803 17.7588 42.5502 22.058 42.5502V44.5502C17.2315 44.5502 12.8425 42.6736 9.59074 39.6424L10.9545 38.1794ZM22.058 42.5502C26.3594 42.5502 30.2905 40.8792 33.1867 38.1794L34.5504 39.6424C31.2975 42.6747 26.8837 44.5502 22.058 44.5502V42.5502ZM33.1867 38.1794C36.0829 35.4796 37.9893 31.7052 38.2877 27.5211L40.2826 27.6633C39.947 32.3692 37.8033 36.61 34.5504 39.6424L33.1867 38.1794ZM38.2851 27.5922C38.2851 27.4918 38.2783 27.2272 38.3401 26.9829L40.2791 27.473C40.285 27.4496 40.2871 27.4341 40.2876 27.4302C40.2881 27.4264 40.2876 27.4293 40.2869 27.4421C40.2863 27.4548 40.2857 27.4727 40.2854 27.4989C40.2851 27.5256 40.2851 27.5546 40.2851 27.5922H38.2851ZM38.3096 27.2279V26.4019H40.3096V27.2279H38.3096ZM38.3096 26.4019V26.3538H40.3096V26.4019H38.3096ZM38.3096 26.3538V9.32675H40.3096V26.3538H38.3096ZM39.29 10.3266C37.7779 10.2969 36.4127 9.67554 35.4078 8.67525L36.8187 7.25777C37.4735 7.90951 38.353 8.30782 39.3292 8.32694L39.29 10.3266ZM35.408 8.6755C34.3691 7.64208 33.7467 6.22263 33.7467 4.66368H35.7467C35.7467 5.67901 36.1488 6.5914 36.8185 7.25751L35.408 8.6755ZM33.7467 4.66368C33.7467 3.10419 34.369 1.68472 35.408 0.651253L36.8185 2.06924C36.1488 2.73531 35.7467 3.64767 35.7467 4.66368H33.7467ZM35.4078 0.651505C36.4463 -0.382187 37.8693 -1 39.432 -1V1C38.4072 1 37.4889 1.40192 36.8187 2.06898L35.4078 0.651505ZM39.432 -1C40.9939 -1 42.4178 -0.382271 43.4559 0.651756L42.0444 2.06873C41.3751 1.40201 40.4563 1 39.432 1V-1ZM43.4554 0.651253C44.4943 1.68472 45.1167 3.10417 45.1167 4.66368H43.1167C43.1167 3.64769 42.7146 2.73531 42.0449 2.06924L43.4554 0.651253ZM45.1167 4.66368C45.1167 6.07193 44.6132 7.37742 43.718 8.38692L42.2216 7.05999C42.7903 6.41869 43.1167 5.58605 43.1167 4.66368H45.1167ZM43.9698 7.72346V26.3538H41.9698V7.72346H43.9698ZM43.9698 26.3538V26.4019H41.9698V26.3538H43.9698ZM43.9698 26.4019V27.5922H41.9698V26.4019H43.9698ZM43.9698 27.5922C43.9698 27.8773 43.933 28.1406 43.8573 28.4032L41.9355 27.8496C41.9577 27.7724 41.9698 27.6958 41.9698 27.5922H43.9698ZM43.893 28.2094C43.4329 33.7364 40.8991 38.7018 37.0383 42.2907L35.6766 40.8258C39.184 37.5654 41.4824 33.0585 41.8999 28.0435L43.893 28.2094ZM37.0416 42.2876C33.4853 45.6238 28.8059 47.7607 23.6451 48.1421L23.4977 46.1475C28.1947 45.8004 32.4452 43.8572 35.6733 40.8289L37.0416 42.2876ZM24.5554 47.3231C23.814 51.4146 23.4077 57.6696 24.2196 63.4248L22.2392 63.7042C21.3926 57.7028 21.8148 51.2302 22.5875 46.9665L24.5554 47.3231ZM24.2193 63.4232C24.747 67.1206 25.7646 70.4854 27.4376 72.8475L25.8055 74.0034C23.8666 71.2658 22.7863 67.5376 22.2394 63.7058L24.2193 63.4232ZM27.4392 72.8497C28.937 74.9769 31.0183 76.2903 33.9005 76.3119L33.8855 78.3119C30.2772 78.2848 27.6242 76.5864 25.8039 74.0012L27.4392 72.8497ZM33.9096 76.312C35.2391 76.3341 36.7616 76.092 38.5354 75.5117L39.1573 77.4126C37.2213 78.0459 35.4747 78.3382 33.8765 78.3118L33.9096 76.312ZM37.92 76.8389C37.4597 75.707 37.1872 74.4377 37.1872 73.1344H39.1872C39.1872 74.1626 39.4031 75.1767 39.7727 76.0855L37.92 76.8389ZM37.1872 73.1344C37.1872 70.4025 38.303 67.9405 40.0923 66.1588L41.5036 67.576C40.0727 69.0008 39.1872 70.96 39.1872 73.1344H37.1872ZM40.0926 66.1585C41.8825 64.3775 44.3532 63.2687 47.0939 63.2687V65.2687C44.9046 65.2687 42.9348 66.1518 41.5033 67.5762L40.0926 66.1585Z" fill="white" mask="url(#path-1-inside-1_1_614)"/>
</svg>
