<svg viewBox="0 0 35 86" fill="none" xmlns="http://www.w3.org/2000/svg">
<mask id="path-1-inside-1_1_619" fill="white">
<path d="M20.5033 70.8524C19.5142 70.8524 18.6939 70.0538 18.6939 69.0372C18.6939 68.045 19.5142 67.2227 20.5033 67.2227H26.5578V61.5357H20.5033C19.5142 61.5357 18.6939 60.7376 18.6939 59.7211C18.6939 58.7289 19.5142 57.906 20.5033 57.906H26.5578V52.2196H20.5033C19.5142 52.2196 18.6939 51.4209 18.6939 50.4044C18.6939 49.4128 19.5142 48.5899 20.5033 48.5899H26.5578V42.9278H20.5033C19.5142 42.9278 18.6939 42.1048 18.6939 41.1126C18.6939 40.0961 19.5142 39.298 20.5033 39.298H26.5578V36.0555V35.9342L17.5118 26.5695L8.46642 35.9342V36.0555V74.0706C8.46642 74.0949 8.49062 74.1429 8.51482 74.1671V74.1914C8.53902 74.2157 8.58741 74.2157 8.61161 74.24H26.3884C26.4368 74.2157 26.461 74.2157 26.5094 74.1914C26.5336 74.1429 26.5578 74.1192 26.5578 74.0706V70.8524H20.5033ZM19.3212 77.8696V82.3702H27.3055C28.3182 82.3702 29.1143 83.1688 29.1143 84.1853C29.1143 85.1776 28.3182 86 27.3055 86H7.69449C6.70599 86 5.88566 85.1776 5.88566 84.1853C5.88566 83.1688 6.70599 82.3702 7.69449 82.3702H15.703V77.8696H8.63521H8.58741H1.80883C0.820328 77.8696 0 77.0467 0 76.0544C0 75.0386 0.820328 74.24 1.80883 74.24H4.84816C4.84816 74.1671 4.84816 74.1192 4.84816 74.0706V36.0555V35.2083C4.84816 34.7004 5.04114 34.2646 5.35511 33.926L15.703 23.2305V1.81516C15.703 0.798653 16.4991 0 17.5118 0C18.5009 0 19.3212 0.798653 19.3212 1.81516V23.2305L29.6449 33.926C30.0067 34.3132 30.1754 34.7969 30.1518 35.2812V36.0555H30.1754V41.1126V50.4044V59.7211V69.0372V74.0706C30.1754 74.1192 30.1754 74.1671 30.1518 74.24H33.1906C34.2039 74.24 35 75.0386 35 76.0544C35 77.0467 34.2039 77.8696 33.1906 77.8696H26.4368H26.3884H19.3212Z"/>
</mask>
<path d="M20.5033 70.8524C19.5142 70.8524 18.6939 70.0538 18.6939 69.0372C18.6939 68.045 19.5142 67.2227 20.5033 67.2227H26.5578V61.5357H20.5033C19.5142 61.5357 18.6939 60.7376 18.6939 59.7211C18.6939 58.7289 19.5142 57.906 20.5033 57.906H26.5578V52.2196H20.5033C19.5142 52.2196 18.6939 51.4209 18.6939 50.4044C18.6939 49.4128 19.5142 48.5899 20.5033 48.5899H26.5578V42.9278H20.5033C19.5142 42.9278 18.6939 42.1048 18.6939 41.1126C18.6939 40.0961 19.5142 39.298 20.5033 39.298H26.5578V36.0555V35.9342L17.5118 26.5695L8.46642 35.9342V36.0555V74.0706C8.46642 74.0949 8.49062 74.1429 8.51482 74.1671V74.1914C8.53902 74.2157 8.58741 74.2157 8.61161 74.24H26.3884C26.4368 74.2157 26.461 74.2157 26.5094 74.1914C26.5336 74.1429 26.5578 74.1192 26.5578 74.0706V70.8524H20.5033ZM19.3212 77.8696V82.3702H27.3055C28.3182 82.3702 29.1143 83.1688 29.1143 84.1853C29.1143 85.1776 28.3182 86 27.3055 86H7.69449C6.70599 86 5.88566 85.1776 5.88566 84.1853C5.88566 83.1688 6.70599 82.3702 7.69449 82.3702H15.703V77.8696H8.63521H8.58741H1.80883C0.820328 77.8696 0 77.0467 0 76.0544C0 75.0386 0.820328 74.24 1.80883 74.24H4.84816C4.84816 74.1671 4.84816 74.1192 4.84816 74.0706V36.0555V35.2083C4.84816 34.7004 5.04114 34.2646 5.35511 33.926L15.703 23.2305V1.81516C15.703 0.798653 16.4991 0 17.5118 0C18.5009 0 19.3212 0.798653 19.3212 1.81516V23.2305L29.6449 33.926C30.0067 34.3132 30.1754 34.7969 30.1518 35.2812V36.0555H30.1754V41.1126V50.4044V59.7211V69.0372V74.0706C30.1754 74.1192 30.1754 74.1671 30.1518 74.24H33.1906C34.2039 74.24 35 75.0386 35 76.0544C35 77.0467 34.2039 77.8696 33.1906 77.8696H26.4368H26.3884H19.3212Z" fill="#1A1919"/>
<path d="M26.5578 67.2227H27.5578V68.2227H26.5578V67.2227ZM26.5578 61.5357V60.5357H27.5578V61.5357H26.5578ZM26.5578 57.906H27.5578V58.906H26.5578V57.906ZM26.5578 52.2196V51.2196H27.5578V52.2196H26.5578ZM26.5578 48.5899H27.5578V49.5899H26.5578V48.5899ZM26.5578 42.9278V41.9278H27.5578V42.9278H26.5578ZM26.5578 39.298H27.5578V40.298H26.5578V39.298ZM26.5578 35.9342L27.277 35.2394L27.5578 35.53V35.9342H26.5578ZM17.5118 26.5695L16.7925 25.8748L17.5118 25.1301L18.231 25.8747L17.5118 26.5695ZM8.46642 35.9342H7.46642V35.5301L7.74716 35.2394L8.46642 35.9342ZM8.51482 74.1671L9.22304 73.4611L9.51482 73.7538V74.1671H8.51482ZM8.51482 74.1914L7.8066 74.8974L7.51482 74.6047V74.1914H8.51482ZM8.61161 74.24V75.24H8.19648L7.90339 74.9459L8.61161 74.24ZM26.3884 74.24L26.8367 75.1338L26.6251 75.24H26.3884V74.24ZM26.5094 74.1914L27.4044 74.6375L27.2557 74.9358L26.9577 75.0853L26.5094 74.1914ZM26.5578 70.8524V69.8524H27.5578V70.8524H26.5578ZM19.3212 82.3702V83.3702H18.3212V82.3702H19.3212ZM15.703 82.3702H16.703V83.3702H15.703V82.3702ZM15.703 77.8696V76.8696H16.703V77.8696H15.703ZM4.84816 74.24H5.84816V75.24H4.84816V74.24ZM5.35511 33.926L4.62181 33.2461L4.62903 33.2383L4.63642 33.2307L5.35511 33.926ZM15.703 23.2305H16.703V23.6351L16.4217 23.9258L15.703 23.2305ZM19.3212 23.2305L18.6017 23.925L18.3212 23.6344V23.2305H19.3212ZM29.6449 33.926L30.3644 33.2315L30.37 33.2374L30.3756 33.2433L29.6449 33.926ZM30.1518 35.2812H29.1518V35.2568L29.153 35.2325L30.1518 35.2812ZM30.1518 36.0555V37.0555H29.1518V36.0555H30.1518ZM30.1754 36.0555V35.0555H31.1754V36.0555H30.1754ZM30.1518 74.24V75.24H28.7767L29.2005 73.9318L30.1518 74.24ZM20.5033 71.8524C18.9677 71.8524 17.6939 70.6118 17.6939 69.0372H19.6939C19.6939 69.4957 20.0608 69.8524 20.5033 69.8524V71.8524ZM17.6939 69.0372C17.6939 67.4953 18.9594 66.2227 20.5033 66.2227V68.2227C20.069 68.2227 19.6939 68.5947 19.6939 69.0372H17.6939ZM20.5033 66.2227H26.5578V68.2227H20.5033V66.2227ZM25.5578 67.2227V61.5357H27.5578V67.2227H25.5578ZM26.5578 62.5357H20.5033V60.5357H26.5578V62.5357ZM20.5033 62.5357C18.9681 62.5357 17.6939 61.2961 17.6939 59.7211H19.6939C19.6939 60.1792 20.0603 60.5357 20.5033 60.5357V62.5357ZM17.6939 59.7211C17.6939 58.1796 18.959 56.906 20.5033 56.906V58.906C20.0695 58.906 19.6939 59.2782 19.6939 59.7211H17.6939ZM20.5033 56.906H26.5578V58.906H20.5033V56.906ZM25.5578 57.906V52.2196H27.5578V57.906H25.5578ZM26.5578 53.2196H20.5033V51.2196H26.5578V53.2196ZM20.5033 53.2196C18.9677 53.2196 17.6939 51.979 17.6939 50.4044H19.6939C19.6939 50.8629 20.0608 51.2196 20.5033 51.2196V53.2196ZM17.6939 50.4044C17.6939 48.8633 18.9592 47.5899 20.5033 47.5899V49.5899C20.0693 49.5899 19.6939 49.9623 19.6939 50.4044H17.6939ZM20.5033 47.5899H26.5578V49.5899H20.5033V47.5899ZM25.5578 48.5899V42.9278H27.5578V48.5899H25.5578ZM26.5578 43.9278H20.5033V41.9278H26.5578V43.9278ZM20.5033 43.9278C18.959 43.9278 17.6939 42.6541 17.6939 41.1126H19.6939C19.6939 41.5555 20.0695 41.9278 20.5033 41.9278V43.9278ZM17.6939 41.1126C17.6939 39.5376 18.9681 38.298 20.5033 38.298V40.298C20.0603 40.298 19.6939 40.6545 19.6939 41.1126H17.6939ZM20.5033 38.298H26.5578V40.298H20.5033V38.298ZM25.5578 39.298V36.0555H27.5578V39.298H25.5578ZM25.5578 36.0555V35.9342H27.5578V36.0555H25.5578ZM25.8385 36.6289L16.7926 27.2643L18.231 25.8747L27.277 35.2394L25.8385 36.6289ZM18.2311 27.2642L9.18568 36.6289L7.74716 35.2394L16.7925 25.8748L18.2311 27.2642ZM9.46642 35.9342V36.0555H7.46642V35.9342H9.46642ZM9.46642 36.0555V74.0706H7.46642V36.0555H9.46642ZM9.46642 74.0706C9.46642 73.9308 9.43562 73.8273 9.42317 73.7883C9.40699 73.7376 9.38917 73.6979 9.37502 73.6698C9.35246 73.6249 9.30762 73.546 9.22304 73.4611L7.8066 74.8731C7.69782 74.764 7.62878 74.649 7.58807 74.568C7.56339 74.5189 7.46642 74.3264 7.46642 74.0706H9.46642ZM9.51482 74.1671V74.1914H7.51482V74.1671H9.51482ZM9.22304 73.4854C9.16718 73.4294 9.11209 73.3881 9.06581 73.3584C9.02002 73.3289 8.97986 73.3088 8.95164 73.2959C8.92356 73.2831 8.90135 73.2748 8.89078 73.271C8.88128 73.2676 8.87369 73.2651 8.88034 73.2673C8.88276 73.2681 8.89942 73.2736 8.91782 73.2803C8.93727 73.2874 8.96817 73.2991 9.00457 73.3157C9.04111 73.3323 9.08921 73.3566 9.14237 73.3908C9.19603 73.4253 9.25793 73.4719 9.31983 73.534L7.90339 74.9459C7.95925 75.002 8.01434 75.0432 8.06062 75.073C8.10641 75.1024 8.14657 75.1226 8.1748 75.1354C8.20288 75.1482 8.22509 75.1565 8.23565 75.1604C8.24516 75.1638 8.25275 75.1663 8.24609 75.1641C8.24367 75.1633 8.22701 75.1577 8.20862 75.1511C8.18917 75.144 8.15826 75.1323 8.12187 75.1157C8.08532 75.099 8.03722 75.0748 7.98406 75.0406C7.93041 75.0061 7.86851 74.9595 7.8066 74.8974L9.22304 73.4854ZM8.61161 73.24H26.3884V75.24H8.61161V73.24ZM25.94 73.3461C25.9834 73.3244 26.0237 73.307 26.0609 73.2926C26.095 73.2794 26.1247 73.2697 26.1318 73.2673C26.1429 73.2636 26.1313 73.2673 26.1169 73.2729C26.0993 73.2796 26.0802 73.2879 26.061 73.2975L26.9577 75.0853C26.9144 75.107 26.8741 75.1244 26.8368 75.1388C26.8027 75.1519 26.773 75.1617 26.766 75.1641C26.7549 75.1678 26.7664 75.1641 26.7809 75.1585C26.7985 75.1517 26.8176 75.1434 26.8367 75.1338L25.94 73.3461ZM25.6144 73.7453C25.6352 73.7035 25.6545 73.6702 25.6615 73.6582C25.6734 73.6376 25.661 73.6585 25.6492 73.6819C25.6335 73.713 25.6081 73.7686 25.5882 73.8425C25.5675 73.919 25.5578 73.9961 25.5578 74.0706H27.5578C27.5578 74.1694 27.545 74.2677 27.519 74.3638C27.4938 74.4573 27.4608 74.531 27.4361 74.5801C27.4241 74.604 27.4133 74.6235 27.4064 74.6358C27.4003 74.6467 27.3935 74.6584 27.3927 74.6596C27.3884 74.6671 27.3956 74.655 27.4044 74.6375L25.6144 73.7453ZM25.5578 74.0706V70.8524H27.5578V74.0706H25.5578ZM26.5578 71.8524H20.5033V69.8524H26.5578V71.8524ZM20.3212 77.8696V82.3702H18.3212V77.8696H20.3212ZM19.3212 81.3702H27.3055V83.3702H19.3212V81.3702ZM27.3055 81.3702C28.8737 81.3702 30.1143 82.6197 30.1143 84.1853H28.1143C28.1143 83.7179 27.7627 83.3702 27.3055 83.3702V81.3702ZM30.1143 84.1853C30.1143 85.7183 28.882 87 27.3055 87V85C27.7544 85 28.1143 84.6369 28.1143 84.1853H30.1143ZM27.3055 87H7.69449V85H27.3055V87ZM7.69449 87C6.15088 87 4.88566 85.7271 4.88566 84.1853H6.88566C6.88566 84.6282 7.26109 85 7.69449 85V87ZM4.88566 84.1853C4.88566 82.611 6.15923 81.3702 7.69449 81.3702V83.3702C7.25274 83.3702 6.88566 83.7266 6.88566 84.1853H4.88566ZM7.69449 81.3702H15.703V83.3702H7.69449V81.3702ZM14.703 82.3702V77.8696H16.703V82.3702H14.703ZM15.703 78.8696H8.63521V76.8696H15.703V78.8696ZM8.63521 78.8696H8.58741V76.8696H8.63521V78.8696ZM8.58741 78.8696H1.80883V76.8696H8.58741V78.8696ZM1.80883 78.8696C0.264854 78.8696 -1 77.5958 -1 76.0544H1C1 76.4977 1.3758 76.8696 1.80883 76.8696V78.8696ZM-1 76.0544C-1 74.4805 0.273839 73.24 1.80883 73.24V75.24C1.36682 75.24 1 75.5967 1 76.0544H-1ZM1.80883 73.24H4.84816V75.24H1.80883V73.24ZM3.84816 74.24C3.84816 74.2398 3.84816 74.2397 3.84816 74.2395C3.84816 74.2394 3.84816 74.2392 3.84816 74.2391C3.84816 74.239 3.84816 74.2388 3.84816 74.2387C3.84816 74.2385 3.84816 74.2384 3.84816 74.2383C3.84816 74.2381 3.84816 74.238 3.84816 74.2378C3.84816 74.2377 3.84816 74.2375 3.84816 74.2374C3.84816 74.2373 3.84816 74.2371 3.84816 74.237C3.84816 74.2368 3.84816 74.2367 3.84816 74.2366C3.84816 74.2364 3.84816 74.2363 3.84816 74.2361C3.84816 74.236 3.84816 74.2359 3.84816 74.2357C3.84816 74.2356 3.84816 74.2354 3.84816 74.2353C3.84816 74.2352 3.84816 74.235 3.84816 74.2349C3.84816 74.2347 3.84816 74.2346 3.84816 74.2345C3.84816 74.2343 3.84816 74.2342 3.84816 74.234C3.84816 74.2339 3.84816 74.2338 3.84816 74.2336C3.84816 74.2335 3.84816 74.2333 3.84816 74.2332C3.84816 74.2331 3.84816 74.2329 3.84816 74.2328C3.84816 74.2326 3.84816 74.2325 3.84816 74.2324C3.84816 74.2322 3.84816 74.2321 3.84816 74.232C3.84816 74.2318 3.84816 74.2317 3.84816 74.2315C3.84816 74.2314 3.84816 74.2313 3.84816 74.2311C3.84816 74.231 3.84816 74.2308 3.84816 74.2307C3.84816 74.2306 3.84816 74.2304 3.84816 74.2303C3.84816 74.2302 3.84816 74.23 3.84816 74.2299C3.84816 74.2297 3.84816 74.2296 3.84816 74.2295C3.84816 74.2293 3.84816 74.2292 3.84816 74.2291C3.84816 74.2289 3.84816 74.2288 3.84816 74.2286C3.84816 74.2285 3.84816 74.2284 3.84816 74.2282C3.84816 74.2281 3.84816 74.228 3.84816 74.2278C3.84816 74.2277 3.84816 74.2275 3.84816 74.2274C3.84816 74.2273 3.84816 74.2271 3.84816 74.227C3.84816 74.2269 3.84816 74.2267 3.84816 74.2266C3.84816 74.2265 3.84816 74.2263 3.84816 74.2262C3.84816 74.226 3.84816 74.2259 3.84816 74.2258C3.84816 74.2256 3.84816 74.2255 3.84816 74.2254C3.84816 74.2252 3.84816 74.2251 3.84816 74.225C3.84816 74.2248 3.84816 74.2247 3.84816 74.2246C3.84816 74.2244 3.84816 74.2243 3.84816 74.2241C3.84816 74.224 3.84816 74.2239 3.84816 74.2237C3.84816 74.2236 3.84816 74.2235 3.84816 74.2233C3.84816 74.2232 3.84816 74.2231 3.84816 74.2229C3.84816 74.2228 3.84816 74.2227 3.84816 74.2225C3.84816 74.2224 3.84816 74.2223 3.84816 74.2221C3.84816 74.222 3.84816 74.2219 3.84816 74.2217C3.84816 74.2216 3.84816 74.2215 3.84816 74.2213C3.84816 74.2212 3.84816 74.221 3.84816 74.2209C3.84816 74.2208 3.84816 74.2206 3.84816 74.2205C3.84816 74.2204 3.84816 74.2202 3.84816 74.2201C3.84816 74.22 3.84816 74.2198 3.84816 74.2197C3.84816 74.2196 3.84816 74.2194 3.84816 74.2193C3.84816 74.2192 3.84816 74.219 3.84816 74.2189C3.84816 74.2188 3.84816 74.2186 3.84816 74.2185C3.84816 74.2184 3.84816 74.2182 3.84816 74.2181C3.84816 74.218 3.84816 74.2178 3.84816 74.2177C3.84816 74.2176 3.84816 74.2175 3.84816 74.2173C3.84816 74.2172 3.84816 74.2171 3.84816 74.2169C3.84816 74.2168 3.84816 74.2167 3.84816 74.2165C3.84816 74.2164 3.84816 74.2163 3.84816 74.2161C3.84816 74.216 3.84816 74.2159 3.84816 74.2157C3.84816 74.2156 3.84816 74.2155 3.84816 74.2153C3.84816 74.2152 3.84816 74.2151 3.84816 74.2149C3.84816 74.2148 3.84816 74.2147 3.84816 74.2146C3.84816 74.2144 3.84816 74.2143 3.84816 74.2142C3.84816 74.214 3.84816 74.2139 3.84816 74.2138C3.84816 74.2136 3.84816 74.2135 3.84816 74.2134C3.84816 74.2132 3.84816 74.2131 3.84816 74.213C3.84816 74.2129 3.84816 74.2127 3.84816 74.2126C3.84816 74.2125 3.84816 74.2123 3.84816 74.2122C3.84816 74.2121 3.84816 74.2119 3.84816 74.2118C3.84816 74.2117 3.84816 74.2115 3.84816 74.2114C3.84816 74.2113 3.84816 74.2112 3.84816 74.211C3.84816 74.2109 3.84816 74.2108 3.84816 74.2106C3.84816 74.2105 3.84816 74.2104 3.84816 74.2103C3.84816 74.2101 3.84816 74.21 3.84816 74.2099C3.84816 74.2097 3.84816 74.2096 3.84816 74.2095C3.84816 74.2093 3.84816 74.2092 3.84816 74.2091C3.84816 74.209 3.84816 74.2088 3.84816 74.2087C3.84816 74.2086 3.84816 74.2084 3.84816 74.2083C3.84816 74.2082 3.84816 74.2081 3.84816 74.2079C3.84816 74.2078 3.84816 74.2077 3.84816 74.2075C3.84816 74.2074 3.84816 74.2073 3.84816 74.2072C3.84816 74.207 3.84816 74.2069 3.84816 74.2068C3.84816 74.2067 3.84816 74.2065 3.84816 74.2064C3.84816 74.2063 3.84816 74.2061 3.84816 74.206C3.84816 74.2059 3.84816 74.2058 3.84816 74.2056C3.84816 74.2055 3.84816 74.2054 3.84816 74.2052C3.84816 74.2051 3.84816 74.205 3.84816 74.2049C3.84816 74.2047 3.84816 74.2046 3.84816 74.2045C3.84816 74.2044 3.84816 74.2042 3.84816 74.2041C3.84816 74.204 3.84816 74.2038 3.84816 74.2037C3.84816 74.2036 3.84816 74.2035 3.84816 74.2033C3.84816 74.2032 3.84816 74.2031 3.84816 74.203C3.84816 74.2028 3.84816 74.2027 3.84816 74.2026C3.84816 74.2025 3.84816 74.2023 3.84816 74.2022C3.84816 74.2021 3.84816 74.202 3.84816 74.2018C3.84816 74.2017 3.84816 74.2016 3.84816 74.2015C3.84816 74.2013 3.84816 74.2012 3.84816 74.2011C3.84816 74.2009 3.84816 74.2008 3.84816 74.2007C3.84816 74.2006 3.84816 74.2004 3.84816 74.2003C3.84816 74.2002 3.84816 74.2001 3.84816 74.1999C3.84816 74.1998 3.84816 74.1997 3.84816 74.1996C3.84816 74.1994 3.84816 74.1993 3.84816 74.1992C3.84816 74.1991 3.84816 74.1989 3.84816 74.1988C3.84816 74.1987 3.84816 74.1986 3.84816 74.1984C3.84816 74.1983 3.84816 74.1982 3.84816 74.1981C3.84816 74.198 3.84816 74.1978 3.84816 74.1977C3.84816 74.1976 3.84816 74.1975 3.84816 74.1973C3.84816 74.1972 3.84816 74.1971 3.84816 74.197C3.84816 74.1968 3.84816 74.1967 3.84816 74.1966C3.84816 74.1965 3.84816 74.1963 3.84816 74.1962C3.84816 74.1961 3.84816 74.196 3.84816 74.1958C3.84816 74.1957 3.84816 74.1956 3.84816 74.1955C3.84816 74.1953 3.84816 74.1952 3.84816 74.1951C3.84816 74.195 3.84816 74.1949 3.84816 74.1947C3.84816 74.1946 3.84816 74.1945 3.84816 74.1944C3.84816 74.1942 3.84816 74.1941 3.84816 74.194C3.84816 74.1939 3.84816 74.1938 3.84816 74.1936C3.84816 74.1935 3.84816 74.1934 3.84816 74.1933C3.84816 74.1931 3.84816 74.193 3.84816 74.1929C3.84816 74.1928 3.84816 74.1926 3.84816 74.1925C3.84816 74.1924 3.84816 74.1923 3.84816 74.1922C3.84816 74.192 3.84816 74.1919 3.84816 74.1918C3.84816 74.1917 3.84816 74.1916 3.84816 74.1914C3.84816 74.1913 3.84816 74.1912 3.84816 74.1911C3.84816 74.1909 3.84816 74.1908 3.84816 74.1907C3.84816 74.1906 3.84816 74.1905 3.84816 74.1903C3.84816 74.1902 3.84816 74.1901 3.84816 74.19C3.84816 74.1898 3.84816 74.1897 3.84816 74.1896C3.84816 74.1895 3.84816 74.1894 3.84816 74.1892C3.84816 74.1891 3.84816 74.189 3.84816 74.1889C3.84816 74.1888 3.84816 74.1886 3.84816 74.1885C3.84816 74.1884 3.84816 74.1883 3.84816 74.1882C3.84816 74.188 3.84816 74.1879 3.84816 74.1878C3.84816 74.1877 3.84816 74.1876 3.84816 74.1874C3.84816 74.1873 3.84816 74.1872 3.84816 74.1871C3.84816 74.187 3.84816 74.1868 3.84816 74.1867C3.84816 74.1866 3.84816 74.1865 3.84816 74.1864C3.84816 74.1862 3.84816 74.1861 3.84816 74.186C3.84816 74.1859 3.84816 74.1858 3.84816 74.1856C3.84816 74.1855 3.84816 74.1854 3.84816 74.1853C3.84816 74.1852 3.84816 74.185 3.84816 74.1849C3.84816 74.1848 3.84816 74.1847 3.84816 74.1846C3.84816 74.1844 3.84816 74.1843 3.84816 74.1842C3.84816 74.1841 3.84816 74.184 3.84816 74.1839C3.84816 74.1837 3.84816 74.1836 3.84816 74.1835C3.84816 74.1834 3.84816 74.1833 3.84816 74.1831C3.84816 74.183 3.84816 74.1829 3.84816 74.1828C3.84816 74.1827 3.84816 74.1825 3.84816 74.1824C3.84816 74.1823 3.84816 74.1822 3.84816 74.1821C3.84816 74.182 3.84816 74.1818 3.84816 74.1817C3.84816 74.1816 3.84816 74.1815 3.84816 74.1814C3.84816 74.1812 3.84816 74.1811 3.84816 74.181C3.84816 74.1809 3.84816 74.1808 3.84816 74.1807C3.84816 74.1805 3.84816 74.1804 3.84816 74.1803C3.84816 74.1802 3.84816 74.1801 3.84816 74.18C3.84816 74.1798 3.84816 74.1797 3.84816 74.1796C3.84816 74.1795 3.84816 74.1794 3.84816 74.1792C3.84816 74.1791 3.84816 74.179 3.84816 74.1789C3.84816 74.1788 3.84816 74.1787 3.84816 74.1785C3.84816 74.1784 3.84816 74.1783 3.84816 74.1782C3.84816 74.1781 3.84816 74.178 3.84816 74.1778C3.84816 74.1777 3.84816 74.1776 3.84816 74.1775C3.84816 74.1774 3.84816 74.1773 3.84816 74.1771C3.84816 74.177 3.84816 74.1769 3.84816 74.1768C3.84816 74.1767 3.84816 74.1766 3.84816 74.1765C3.84816 74.1763 3.84816 74.1762 3.84816 74.1761C3.84816 74.176 3.84816 74.1759 3.84816 74.1758C3.84816 74.1756 3.84816 74.1755 3.84816 74.1754C3.84816 74.1753 3.84816 74.1752 3.84816 74.1751C3.84816 74.1749 3.84816 74.1748 3.84816 74.1747C3.84816 74.1746 3.84816 74.1745 3.84816 74.1744C3.84816 74.1743 3.84816 74.1741 3.84816 74.174C3.84816 74.1739 3.84816 74.1738 3.84816 74.1737C3.84816 74.1736 3.84816 74.1734 3.84816 74.1733C3.84816 74.1732 3.84816 74.1731 3.84816 74.173C3.84816 74.1729 3.84816 74.1728 3.84816 74.1726C3.84816 74.1725 3.84816 74.1724 3.84816 74.1723C3.84816 74.1722 3.84816 74.1721 3.84816 74.172C3.84816 74.1718 3.84816 74.1717 3.84816 74.1716C3.84816 74.1715 3.84816 74.1714 3.84816 74.1713C3.84816 74.1712 3.84816 74.171 3.84816 74.1709C3.84816 74.1708 3.84816 74.1707 3.84816 74.1706C3.84816 74.1705 3.84816 74.1704 3.84816 74.1702C3.84816 74.1701 3.84816 74.17 3.84816 74.1699C3.84816 74.1698 3.84816 74.1697 3.84816 74.1696C3.84816 74.1694 3.84816 74.1693 3.84816 74.1692C3.84816 74.1691 3.84816 74.169 3.84816 74.1689C3.84816 74.1688 3.84816 74.1687 3.84816 74.1685C3.84816 74.1684 3.84816 74.1683 3.84816 74.1682C3.84816 74.1681 3.84816 74.168 3.84816 74.1679C3.84816 74.1677 3.84816 74.1676 3.84816 74.1675C3.84816 74.1674 3.84816 74.1673 3.84816 74.1672C3.84816 74.1671 3.84816 74.167 3.84816 74.1668C3.84816 74.1667 3.84816 74.1666 3.84816 74.1665C3.84816 74.1664 3.84816 74.1663 3.84816 74.1662C3.84816 74.1661 3.84816 74.1659 3.84816 74.1658C3.84816 74.1657 3.84816 74.1656 3.84816 74.1655C3.84816 74.1654 3.84816 74.1653 3.84816 74.1652C3.84816 74.165 3.84816 74.1649 3.84816 74.1648C3.84816 74.1647 3.84816 74.1646 3.84816 74.1645C3.84816 74.1644 3.84816 74.1643 3.84816 74.1642C3.84816 74.164 3.84816 74.1639 3.84816 74.1638C3.84816 74.1637 3.84816 74.1636 3.84816 74.1635C3.84816 74.1634 3.84816 74.1633 3.84816 74.1631C3.84816 74.163 3.84816 74.1629 3.84816 74.1628C3.84816 74.1627 3.84816 74.1626 3.84816 74.1625C3.84816 74.1624 3.84816 74.1623 3.84816 74.1621C3.84816 74.162 3.84816 74.1619 3.84816 74.1618C3.84816 74.1617 3.84816 74.1616 3.84816 74.1615C3.84816 74.1614 3.84816 74.1613 3.84816 74.1611C3.84816 74.161 3.84816 74.1609 3.84816 74.1608C3.84816 74.1607 3.84816 74.1606 3.84816 74.1605C3.84816 74.1604 3.84816 74.1603 3.84816 74.1602C3.84816 74.16 3.84816 74.1599 3.84816 74.1598C3.84816 74.1597 3.84816 74.1596 3.84816 74.1595C3.84816 74.1594 3.84816 74.1593 3.84816 74.1592C3.84816 74.1591 3.84816 74.1589 3.84816 74.1588C3.84816 74.1587 3.84816 74.1586 3.84816 74.1585C3.84816 74.1584 3.84816 74.1583 3.84816 74.1582C3.84816 74.1581 3.84816 74.158 3.84816 74.1578C3.84816 74.1577 3.84816 74.1576 3.84816 74.1575C3.84816 74.1574 3.84816 74.1573 3.84816 74.1572C3.84816 74.1571 3.84816 74.157 3.84816 74.1569C3.84816 74.1567 3.84816 74.1566 3.84816 74.1565C3.84816 74.1564 3.84816 74.1563 3.84816 74.1562C3.84816 74.1561 3.84816 74.156 3.84816 74.1559C3.84816 74.1558 3.84816 74.1557 3.84816 74.1555C3.84816 74.1554 3.84816 74.1553 3.84816 74.1552C3.84816 74.1551 3.84816 74.155 3.84816 74.1549C3.84816 74.1548 3.84816 74.1547 3.84816 74.1546C3.84816 74.1545 3.84816 74.1544 3.84816 74.1542C3.84816 74.1541 3.84816 74.154 3.84816 74.1539C3.84816 74.1538 3.84816 74.1537 3.84816 74.1536C3.84816 74.1535 3.84816 74.1534 3.84816 74.1533C3.84816 74.1532 3.84816 74.1531 3.84816 74.1529C3.84816 74.1528 3.84816 74.1527 3.84816 74.1526C3.84816 74.1525 3.84816 74.1524 3.84816 74.1523C3.84816 74.1522 3.84816 74.1521 3.84816 74.152C3.84816 74.1519 3.84816 74.1518 3.84816 74.1516C3.84816 74.1515 3.84816 74.1514 3.84816 74.1513C3.84816 74.1512 3.84816 74.1511 3.84816 74.151C3.84816 74.1509 3.84816 74.1508 3.84816 74.1507C3.84816 74.1506 3.84816 74.1505 3.84816 74.1504C3.84816 74.1503 3.84816 74.1501 3.84816 74.15C3.84816 74.1499 3.84816 74.1498 3.84816 74.1497C3.84816 74.1496 3.84816 74.1495 3.84816 74.1494C3.84816 74.1493 3.84816 74.1492 3.84816 74.1491C3.84816 74.149 3.84816 74.1489 3.84816 74.1488C3.84816 74.1486 3.84816 74.1485 3.84816 74.1484C3.84816 74.1483 3.84816 74.1482 3.84816 74.1481C3.84816 74.148 3.84816 74.1479 3.84816 74.1478C3.84816 74.1477 3.84816 74.1476 3.84816 74.1475C3.84816 74.1474 3.84816 74.1473 3.84816 74.1472C3.84816 74.147 3.84816 74.1469 3.84816 74.1468C3.84816 74.1467 3.84816 74.1466 3.84816 74.1465C3.84816 74.1464 3.84816 74.1463 3.84816 74.1462C3.84816 74.1461 3.84816 74.146 3.84816 74.1459C3.84816 74.1458 3.84816 74.1457 3.84816 74.1456C3.84816 74.1455 3.84816 74.1454 3.84816 74.1452C3.84816 74.1451 3.84816 74.145 3.84816 74.1449C3.84816 74.1448 3.84816 74.1447 3.84816 74.1446C3.84816 74.1445 3.84816 74.1444 3.84816 74.1443C3.84816 74.1442 3.84816 74.1441 3.84816 74.144C3.84816 74.1439 3.84816 74.1438 3.84816 74.1437C3.84816 74.1436 3.84816 74.1434 3.84816 74.1433C3.84816 74.1432 3.84816 74.1431 3.84816 74.143C3.84816 74.1429 3.84816 74.1428 3.84816 74.1427C3.84816 74.1426 3.84816 74.1425 3.84816 74.1424C3.84816 74.1423 3.84816 74.1422 3.84816 74.1421C3.84816 74.142 3.84816 74.1419 3.84816 74.1418C3.84816 74.1417 3.84816 74.1416 3.84816 74.1415C3.84816 74.1413 3.84816 74.1412 3.84816 74.1411C3.84816 74.141 3.84816 74.1409 3.84816 74.1408C3.84816 74.1407 3.84816 74.1406 3.84816 74.1405C3.84816 74.1404 3.84816 74.1403 3.84816 74.1402C3.84816 74.1401 3.84816 74.14 3.84816 74.1399C3.84816 74.1398 3.84816 74.1397 3.84816 74.1396C3.84816 74.1395 3.84816 74.1394 3.84816 74.1393C3.84816 74.1392 3.84816 74.1391 3.84816 74.1389C3.84816 74.1388 3.84816 74.1387 3.84816 74.1386C3.84816 74.1385 3.84816 74.1384 3.84816 74.1383C3.84816 74.1382 3.84816 74.1381 3.84816 74.138C3.84816 74.1379 3.84816 74.1378 3.84816 74.1377C3.84816 74.1376 3.84816 74.1375 3.84816 74.1374C3.84816 74.1373 3.84816 74.1372 3.84816 74.1371C3.84816 74.137 3.84816 74.1369 3.84816 74.1368C3.84816 74.1367 3.84816 74.1366 3.84816 74.1365C3.84816 74.1364 3.84816 74.1363 3.84816 74.1362C3.84816 74.136 3.84816 74.1359 3.84816 74.1358C3.84816 74.1357 3.84816 74.1356 3.84816 74.1355C3.84816 74.1354 3.84816 74.1353 3.84816 74.1352C3.84816 74.1351 3.84816 74.135 3.84816 74.1349C3.84816 74.1348 3.84816 74.1347 3.84816 74.1346C3.84816 74.1345 3.84816 74.1344 3.84816 74.1343C3.84816 74.1342 3.84816 74.1341 3.84816 74.134C3.84816 74.1339 3.84816 74.1338 3.84816 74.1337C3.84816 74.1336 3.84816 74.1335 3.84816 74.1334C3.84816 74.1333 3.84816 74.1332 3.84816 74.1331C3.84816 74.133 3.84816 74.1329 3.84816 74.1328C3.84816 74.1327 3.84816 74.1326 3.84816 74.1324C3.84816 74.1323 3.84816 74.1322 3.84816 74.1321C3.84816 74.132 3.84816 74.1319 3.84816 74.1318C3.84816 74.1317 3.84816 74.1316 3.84816 74.1315C3.84816 74.1314 3.84816 74.1313 3.84816 74.1312C3.84816 74.1311 3.84816 74.131 3.84816 74.1309C3.84816 74.1308 3.84816 74.1307 3.84816 74.1306C3.84816 74.1305 3.84816 74.1304 3.84816 74.1303C3.84816 74.1302 3.84816 74.1301 3.84816 74.13C3.84816 74.1299 3.84816 74.1298 3.84816 74.1297C3.84816 74.1296 3.84816 74.1295 3.84816 74.1294C3.84816 74.1293 3.84816 74.1292 3.84816 74.1291C3.84816 74.129 3.84816 74.1289 3.84816 74.1288C3.84816 74.1287 3.84816 74.1286 3.84816 74.1285C3.84816 74.1284 3.84816 74.1283 3.84816 74.1282C3.84816 74.1281 3.84816 74.128 3.84816 74.1279C3.84816 74.1278 3.84816 74.1277 3.84816 74.1276C3.84816 74.1275 3.84816 74.1274 3.84816 74.1273C3.84816 74.1272 3.84816 74.1271 3.84816 74.127C3.84816 74.1269 3.84816 74.1268 3.84816 74.1267C3.84816 74.1266 3.84816 74.1264 3.84816 74.1263C3.84816 74.1262 3.84816 74.1261 3.84816 74.126C3.84816 74.1259 3.84816 74.1258 3.84816 74.1257C3.84816 74.1256 3.84816 74.1255 3.84816 74.1254C3.84816 74.1253 3.84816 74.1252 3.84816 74.1251C3.84816 74.125 3.84816 74.1249 3.84816 74.1248C3.84816 74.1247 3.84816 74.1246 3.84816 74.1245C3.84816 74.1244 3.84816 74.1243 3.84816 74.1242C3.84816 74.1241 3.84816 74.124 3.84816 74.1239C3.84816 74.1238 3.84816 74.1237 3.84816 74.1236C3.84816 74.1235 3.84816 74.1234 3.84816 74.1233C3.84816 74.1232 3.84816 74.1231 3.84816 74.123C3.84816 74.1229 3.84816 74.1228 3.84816 74.1227C3.84816 74.1226 3.84816 74.1225 3.84816 74.1224C3.84816 74.1223 3.84816 74.1222 3.84816 74.1221C3.84816 74.122 3.84816 74.1219 3.84816 74.1218C3.84816 74.1217 3.84816 74.1216 3.84816 74.1215C3.84816 74.1214 3.84816 74.1213 3.84816 74.1212C3.84816 74.1211 3.84816 74.121 3.84816 74.1209C3.84816 74.1208 3.84816 74.1207 3.84816 74.1206C3.84816 74.1205 3.84816 74.1204 3.84816 74.1203C3.84816 74.1202 3.84816 74.1201 3.84816 74.12C3.84816 74.1199 3.84816 74.1198 3.84816 74.1197C3.84816 74.1196 3.84816 74.1195 3.84816 74.1194C3.84816 74.1193 3.84816 74.1192 3.84816 74.1191C3.84816 74.119 3.84816 74.1189 3.84816 74.1188C3.84816 74.1187 3.84816 74.1186 3.84816 74.1185C3.84816 74.1184 3.84816 74.1183 3.84816 74.1182C3.84816 74.1181 3.84816 74.118 3.84816 74.1179C3.84816 74.1178 3.84816 74.1177 3.84816 74.1176C3.84816 74.1175 3.84816 74.1175 3.84816 74.1174C3.84816 74.1173 3.84816 74.1172 3.84816 74.1171C3.84816 74.117 3.84816 74.1169 3.84816 74.1168C3.84816 74.1167 3.84816 74.1166 3.84816 74.1165C3.84816 74.1164 3.84816 74.1163 3.84816 74.1162C3.84816 74.1161 3.84816 74.116 3.84816 74.1159C3.84816 74.1158 3.84816 74.1157 3.84816 74.1156C3.84816 74.1155 3.84816 74.1154 3.84816 74.1153C3.84816 74.1152 3.84816 74.1151 3.84816 74.115C3.84816 74.1149 3.84816 74.1148 3.84816 74.1147C3.84816 74.1146 3.84816 74.1145 3.84816 74.1144C3.84816 74.1143 3.84816 74.1142 3.84816 74.1141C3.84816 74.114 3.84816 74.1139 3.84816 74.1138C3.84816 74.1137 3.84816 74.1136 3.84816 74.1135C3.84816 74.1134 3.84816 74.1133 3.84816 74.1132C3.84816 74.1131 3.84816 74.113 3.84816 74.1129C3.84816 74.1128 3.84816 74.1127 3.84816 74.1126C3.84816 74.1125 3.84816 74.1124 3.84816 74.1123C3.84816 74.1122 3.84816 74.1121 3.84816 74.112C3.84816 74.1119 3.84816 74.1118 3.84816 74.1117C3.84816 74.1116 3.84816 74.1115 3.84816 74.1114C3.84816 74.1113 3.84816 74.1112 3.84816 74.1111C3.84816 74.111 3.84816 74.111 3.84816 74.1109C3.84816 74.1108 3.84816 74.1107 3.84816 74.1106C3.84816 74.1105 3.84816 74.1104 3.84816 74.1103C3.84816 74.1102 3.84816 74.1101 3.84816 74.11C3.84816 74.1099 3.84816 74.1098 3.84816 74.1097C3.84816 74.1096 3.84816 74.1095 3.84816 74.1094C3.84816 74.1093 3.84816 74.1092 3.84816 74.1091C3.84816 74.109 3.84816 74.1089 3.84816 74.1088C3.84816 74.1087 3.84816 74.1086 3.84816 74.1085C3.84816 74.1084 3.84816 74.1083 3.84816 74.1082C3.84816 74.1081 3.84816 74.108 3.84816 74.1079C3.84816 74.1078 3.84816 74.1077 3.84816 74.1076C3.84816 74.1075 3.84816 74.1074 3.84816 74.1073C3.84816 74.1072 3.84816 74.1071 3.84816 74.107C3.84816 74.1069 3.84816 74.1069 3.84816 74.1068C3.84816 74.1067 3.84816 74.1066 3.84816 74.1065C3.84816 74.1064 3.84816 74.1063 3.84816 74.1062C3.84816 74.1061 3.84816 74.106 3.84816 74.1059C3.84816 74.1058 3.84816 74.1057 3.84816 74.1056C3.84816 74.1055 3.84816 74.1054 3.84816 74.1053C3.84816 74.1052 3.84816 74.1051 3.84816 74.105C3.84816 74.1049 3.84816 74.1048 3.84816 74.1047C3.84816 74.1046 3.84816 74.1045 3.84816 74.1044C3.84816 74.1043 3.84816 74.1042 3.84816 74.1041C3.84816 74.104 3.84816 74.1039 3.84816 74.1038C3.84816 74.1037 3.84816 74.1037 3.84816 74.1036C3.84816 74.1035 3.84816 74.1034 3.84816 74.1033C3.84816 74.1032 3.84816 74.1031 3.84816 74.103C3.84816 74.1029 3.84816 74.1028 3.84816 74.1027C3.84816 74.1026 3.84816 74.1025 3.84816 74.1024C3.84816 74.1023 3.84816 74.1022 3.84816 74.1021C3.84816 74.102 3.84816 74.1019 3.84816 74.1018C3.84816 74.1017 3.84816 74.1016 3.84816 74.1015C3.84816 74.1014 3.84816 74.1013 3.84816 74.1012C3.84816 74.1011 3.84816 74.101 3.84816 74.1009C3.84816 74.1008 3.84816 74.1008 3.84816 74.1007C3.84816 74.1006 3.84816 74.1005 3.84816 74.1004C3.84816 74.1003 3.84816 74.1002 3.84816 74.1001C3.84816 74.1 3.84816 74.0999 3.84816 74.0998C3.84816 74.0997 3.84816 74.0996 3.84816 74.0995C3.84816 74.0994 3.84816 74.0993 3.84816 74.0992C3.84816 74.0991 3.84816 74.099 3.84816 74.0989C3.84816 74.0988 3.84816 74.0987 3.84816 74.0986C3.84816 74.0985 3.84816 74.0984 3.84816 74.0983C3.84816 74.0982 3.84816 74.0982 3.84816 74.0981C3.84816 74.098 3.84816 74.0979 3.84816 74.0978C3.84816 74.0977 3.84816 74.0976 3.84816 74.0975C3.84816 74.0974 3.84816 74.0973 3.84816 74.0972C3.84816 74.0971 3.84816 74.097 3.84816 74.0969C3.84816 74.0968 3.84816 74.0967 3.84816 74.0966C3.84816 74.0965 3.84816 74.0964 3.84816 74.0963C3.84816 74.0962 3.84816 74.0961 3.84816 74.096C3.84816 74.0959 3.84816 74.0958 3.84816 74.0958C3.84816 74.0957 3.84816 74.0956 3.84816 74.0955C3.84816 74.0954 3.84816 74.0953 3.84816 74.0952C3.84816 74.0951 3.84816 74.095 3.84816 74.0949C3.84816 74.0948 3.84816 74.0947 3.84816 74.0946C3.84816 74.0945 3.84816 74.0944 3.84816 74.0943C3.84816 74.0942 3.84816 74.0941 3.84816 74.094C3.84816 74.0939 3.84816 74.0938 3.84816 74.0937C3.84816 74.0936 3.84816 74.0935 3.84816 74.0935C3.84816 74.0934 3.84816 74.0933 3.84816 74.0932C3.84816 74.0931 3.84816 74.093 3.84816 74.0929C3.84816 74.0928 3.84816 74.0927 3.84816 74.0926C3.84816 74.0925 3.84816 74.0924 3.84816 74.0923C3.84816 74.0922 3.84816 74.0921 3.84816 74.092C3.84816 74.0919 3.84816 74.0918 3.84816 74.0917C3.84816 74.0916 3.84816 74.0915 3.84816 74.0914C3.84816 74.0914 3.84816 74.0913 3.84816 74.0912C3.84816 74.0911 3.84816 74.091 3.84816 74.0909C3.84816 74.0908 3.84816 74.0907 3.84816 74.0906C3.84816 74.0905 3.84816 74.0904 3.84816 74.0903C3.84816 74.0902 3.84816 74.0901 3.84816 74.09C3.84816 74.0899 3.84816 74.0898 3.84816 74.0897C3.84816 74.0896 3.84816 74.0895 3.84816 74.0894C3.84816 74.0893 3.84816 74.0893 3.84816 74.0892C3.84816 74.0891 3.84816 74.089 3.84816 74.0889C3.84816 74.0888 3.84816 74.0887 3.84816 74.0886C3.84816 74.0885 3.84816 74.0884 3.84816 74.0883C3.84816 74.0882 3.84816 74.0881 3.84816 74.088C3.84816 74.0879 3.84816 74.0878 3.84816 74.0877C3.84816 74.0876 3.84816 74.0875 3.84816 74.0874C3.84816 74.0873 3.84816 74.0873 3.84816 74.0872C3.84816 74.0871 3.84816 74.087 3.84816 74.0869C3.84816 74.0868 3.84816 74.0867 3.84816 74.0866C3.84816 74.0865 3.84816 74.0864 3.84816 74.0863C3.84816 74.0862 3.84816 74.0861 3.84816 74.086C3.84816 74.0859 3.84816 74.0858 3.84816 74.0857C3.84816 74.0856 3.84816 74.0855 3.84816 74.0854C3.84816 74.0853 3.84816 74.0853 3.84816 74.0852C3.84816 74.0851 3.84816 74.085 3.84816 74.0849C3.84816 74.0848 3.84816 74.0847 3.84816 74.0846C3.84816 74.0845 3.84816 74.0844 3.84816 74.0843C3.84816 74.0842 3.84816 74.0841 3.84816 74.084C3.84816 74.0839 3.84816 74.0838 3.84816 74.0837C3.84816 74.0836 3.84816 74.0835 3.84816 74.0834C3.84816 74.0834 3.84816 74.0833 3.84816 74.0832C3.84816 74.0831 3.84816 74.083 3.84816 74.0829C3.84816 74.0828 3.84816 74.0827 3.84816 74.0826C3.84816 74.0825 3.84816 74.0824 3.84816 74.0823C3.84816 74.0822 3.84816 74.0821 3.84816 74.082C3.84816 74.0819 3.84816 74.0818 3.84816 74.0817C3.84816 74.0816 3.84816 74.0815 3.84816 74.0815C3.84816 74.0814 3.84816 74.0813 3.84816 74.0812C3.84816 74.0811 3.84816 74.081 3.84816 74.0809C3.84816 74.0808 3.84816 74.0807 3.84816 74.0806C3.84816 74.0805 3.84816 74.0804 3.84816 74.0803C3.84816 74.0802 3.84816 74.0801 3.84816 74.08C3.84816 74.0799 3.84816 74.0798 3.84816 74.0797C3.84816 74.0796 3.84816 74.0796 3.84816 74.0795C3.84816 74.0794 3.84816 74.0793 3.84816 74.0792C3.84816 74.0791 3.84816 74.079 3.84816 74.0789C3.84816 74.0788 3.84816 74.0787 3.84816 74.0786C3.84816 74.0785 3.84816 74.0784 3.84816 74.0783C3.84816 74.0782 3.84816 74.0781 3.84816 74.078C3.84816 74.0779 3.84816 74.0778 3.84816 74.0778C3.84816 74.0777 3.84816 74.0776 3.84816 74.0775C3.84816 74.0774 3.84816 74.0773 3.84816 74.0772C3.84816 74.0771 3.84816 74.077 3.84816 74.0769C3.84816 74.0768 3.84816 74.0767 3.84816 74.0766C3.84816 74.0765 3.84816 74.0764 3.84816 74.0763C3.84816 74.0762 3.84816 74.0761 3.84816 74.076C3.84816 74.076 3.84816 74.0759 3.84816 74.0758C3.84816 74.0757 3.84816 74.0756 3.84816 74.0755C3.84816 74.0754 3.84816 74.0753 3.84816 74.0752C3.84816 74.0751 3.84816 74.075 3.84816 74.0749C3.84816 74.0748 3.84816 74.0747 3.84816 74.0746C3.84816 74.0745 3.84816 74.0744 3.84816 74.0743C3.84816 74.0742 3.84816 74.0742 3.84816 74.0741C3.84816 74.074 3.84816 74.0739 3.84816 74.0738C3.84816 74.0737 3.84816 74.0736 3.84816 74.0735C3.84816 74.0734 3.84816 74.0733 3.84816 74.0732C3.84816 74.0731 3.84816 74.073 3.84816 74.0729C3.84816 74.0728 3.84816 74.0727 3.84816 74.0726C3.84816 74.0725 3.84816 74.0724 3.84816 74.0723C3.84816 74.0723 3.84816 74.0722 3.84816 74.0721C3.84816 74.072 3.84816 74.0719 3.84816 74.0718C3.84816 74.0717 3.84816 74.0716 3.84816 74.0715C3.84816 74.0714 3.84816 74.0713 3.84816 74.0712C3.84816 74.0711 3.84816 74.071 3.84816 74.0709C3.84816 74.0708 3.84816 74.0707 3.84816 74.0706H5.84816C5.84816 74.0707 5.84816 74.0708 5.84816 74.0709C5.84816 74.071 5.84816 74.0711 5.84816 74.0712C5.84816 74.0713 5.84816 74.0714 5.84816 74.0715C5.84816 74.0716 5.84816 74.0717 5.84816 74.0718C5.84816 74.0719 5.84816 74.072 5.84816 74.0721C5.84816 74.0722 5.84816 74.0723 5.84816 74.0723C5.84816 74.0724 5.84816 74.0725 5.84816 74.0726C5.84816 74.0727 5.84816 74.0728 5.84816 74.0729C5.84816 74.073 5.84816 74.0731 5.84816 74.0732C5.84816 74.0733 5.84816 74.0734 5.84816 74.0735C5.84816 74.0736 5.84816 74.0737 5.84816 74.0738C5.84816 74.0739 5.84816 74.074 5.84816 74.0741C5.84816 74.0742 5.84816 74.0742 5.84816 74.0743C5.84816 74.0744 5.84816 74.0745 5.84816 74.0746C5.84816 74.0747 5.84816 74.0748 5.84816 74.0749C5.84816 74.075 5.84816 74.0751 5.84816 74.0752C5.84816 74.0753 5.84816 74.0754 5.84816 74.0755C5.84816 74.0756 5.84816 74.0757 5.84816 74.0758C5.84816 74.0759 5.84816 74.076 5.84816 74.076C5.84816 74.0761 5.84816 74.0762 5.84816 74.0763C5.84816 74.0764 5.84816 74.0765 5.84816 74.0766C5.84816 74.0767 5.84816 74.0768 5.84816 74.0769C5.84816 74.077 5.84816 74.0771 5.84816 74.0772C5.84816 74.0773 5.84816 74.0774 5.84816 74.0775C5.84816 74.0776 5.84816 74.0777 5.84816 74.0778C5.84816 74.0778 5.84816 74.0779 5.84816 74.078C5.84816 74.0781 5.84816 74.0782 5.84816 74.0783C5.84816 74.0784 5.84816 74.0785 5.84816 74.0786C5.84816 74.0787 5.84816 74.0788 5.84816 74.0789C5.84816 74.079 5.84816 74.0791 5.84816 74.0792C5.84816 74.0793 5.84816 74.0794 5.84816 74.0795C5.84816 74.0796 5.84816 74.0796 5.84816 74.0797C5.84816 74.0798 5.84816 74.0799 5.84816 74.08C5.84816 74.0801 5.84816 74.0802 5.84816 74.0803C5.84816 74.0804 5.84816 74.0805 5.84816 74.0806C5.84816 74.0807 5.84816 74.0808 5.84816 74.0809C5.84816 74.081 5.84816 74.0811 5.84816 74.0812C5.84816 74.0813 5.84816 74.0814 5.84816 74.0815C5.84816 74.0815 5.84816 74.0816 5.84816 74.0817C5.84816 74.0818 5.84816 74.0819 5.84816 74.082C5.84816 74.0821 5.84816 74.0822 5.84816 74.0823C5.84816 74.0824 5.84816 74.0825 5.84816 74.0826C5.84816 74.0827 5.84816 74.0828 5.84816 74.0829C5.84816 74.083 5.84816 74.0831 5.84816 74.0832C5.84816 74.0833 5.84816 74.0834 5.84816 74.0834C5.84816 74.0835 5.84816 74.0836 5.84816 74.0837C5.84816 74.0838 5.84816 74.0839 5.84816 74.084C5.84816 74.0841 5.84816 74.0842 5.84816 74.0843C5.84816 74.0844 5.84816 74.0845 5.84816 74.0846C5.84816 74.0847 5.84816 74.0848 5.84816 74.0849C5.84816 74.085 5.84816 74.0851 5.84816 74.0852C5.84816 74.0853 5.84816 74.0853 5.84816 74.0854C5.84816 74.0855 5.84816 74.0856 5.84816 74.0857C5.84816 74.0858 5.84816 74.0859 5.84816 74.086C5.84816 74.0861 5.84816 74.0862 5.84816 74.0863C5.84816 74.0864 5.84816 74.0865 5.84816 74.0866C5.84816 74.0867 5.84816 74.0868 5.84816 74.0869C5.84816 74.087 5.84816 74.0871 5.84816 74.0872C5.84816 74.0873 5.84816 74.0873 5.84816 74.0874C5.84816 74.0875 5.84816 74.0876 5.84816 74.0877C5.84816 74.0878 5.84816 74.0879 5.84816 74.088C5.84816 74.0881 5.84816 74.0882 5.84816 74.0883C5.84816 74.0884 5.84816 74.0885 5.84816 74.0886C5.84816 74.0887 5.84816 74.0888 5.84816 74.0889C5.84816 74.089 5.84816 74.0891 5.84816 74.0892C5.84816 74.0893 5.84816 74.0893 5.84816 74.0894C5.84816 74.0895 5.84816 74.0896 5.84816 74.0897C5.84816 74.0898 5.84816 74.0899 5.84816 74.09C5.84816 74.0901 5.84816 74.0902 5.84816 74.0903C5.84816 74.0904 5.84816 74.0905 5.84816 74.0906C5.84816 74.0907 5.84816 74.0908 5.84816 74.0909C5.84816 74.091 5.84816 74.0911 5.84816 74.0912C5.84816 74.0913 5.84816 74.0914 5.84816 74.0914C5.84816 74.0915 5.84816 74.0916 5.84816 74.0917C5.84816 74.0918 5.84816 74.0919 5.84816 74.092C5.84816 74.0921 5.84816 74.0922 5.84816 74.0923C5.84816 74.0924 5.84816 74.0925 5.84816 74.0926C5.84816 74.0927 5.84816 74.0928 5.84816 74.0929C5.84816 74.093 5.84816 74.0931 5.84816 74.0932C5.84816 74.0933 5.84816 74.0934 5.84816 74.0935C5.84816 74.0935 5.84816 74.0936 5.84816 74.0937C5.84816 74.0938 5.84816 74.0939 5.84816 74.094C5.84816 74.0941 5.84816 74.0942 5.84816 74.0943C5.84816 74.0944 5.84816 74.0945 5.84816 74.0946C5.84816 74.0947 5.84816 74.0948 5.84816 74.0949C5.84816 74.095 5.84816 74.0951 5.84816 74.0952C5.84816 74.0953 5.84816 74.0954 5.84816 74.0955C5.84816 74.0956 5.84816 74.0957 5.84816 74.0958C5.84816 74.0958 5.84816 74.0959 5.84816 74.096C5.84816 74.0961 5.84816 74.0962 5.84816 74.0963C5.84816 74.0964 5.84816 74.0965 5.84816 74.0966C5.84816 74.0967 5.84816 74.0968 5.84816 74.0969C5.84816 74.097 5.84816 74.0971 5.84816 74.0972C5.84816 74.0973 5.84816 74.0974 5.84816 74.0975C5.84816 74.0976 5.84816 74.0977 5.84816 74.0978C5.84816 74.0979 5.84816 74.098 5.84816 74.0981C5.84816 74.0982 5.84816 74.0982 5.84816 74.0983C5.84816 74.0984 5.84816 74.0985 5.84816 74.0986C5.84816 74.0987 5.84816 74.0988 5.84816 74.0989C5.84816 74.099 5.84816 74.0991 5.84816 74.0992C5.84816 74.0993 5.84816 74.0994 5.84816 74.0995C5.84816 74.0996 5.84816 74.0997 5.84816 74.0998C5.84816 74.0999 5.84816 74.1 5.84816 74.1001C5.84816 74.1002 5.84816 74.1003 5.84816 74.1004C5.84816 74.1005 5.84816 74.1006 5.84816 74.1007C5.84816 74.1008 5.84816 74.1008 5.84816 74.1009C5.84816 74.101 5.84816 74.1011 5.84816 74.1012C5.84816 74.1013 5.84816 74.1014 5.84816 74.1015C5.84816 74.1016 5.84816 74.1017 5.84816 74.1018C5.84816 74.1019 5.84816 74.102 5.84816 74.1021C5.84816 74.1022 5.84816 74.1023 5.84816 74.1024C5.84816 74.1025 5.84816 74.1026 5.84816 74.1027C5.84816 74.1028 5.84816 74.1029 5.84816 74.103C5.84816 74.1031 5.84816 74.1032 5.84816 74.1033C5.84816 74.1034 5.84816 74.1035 5.84816 74.1036C5.84816 74.1037 5.84816 74.1037 5.84816 74.1038C5.84816 74.1039 5.84816 74.104 5.84816 74.1041C5.84816 74.1042 5.84816 74.1043 5.84816 74.1044C5.84816 74.1045 5.84816 74.1046 5.84816 74.1047C5.84816 74.1048 5.84816 74.1049 5.84816 74.105C5.84816 74.1051 5.84816 74.1052 5.84816 74.1053C5.84816 74.1054 5.84816 74.1055 5.84816 74.1056C5.84816 74.1057 5.84816 74.1058 5.84816 74.1059C5.84816 74.106 5.84816 74.1061 5.84816 74.1062C5.84816 74.1063 5.84816 74.1064 5.84816 74.1065C5.84816 74.1066 5.84816 74.1067 5.84816 74.1068C5.84816 74.1069 5.84816 74.1069 5.84816 74.107C5.84816 74.1071 5.84816 74.1072 5.84816 74.1073C5.84816 74.1074 5.84816 74.1075 5.84816 74.1076C5.84816 74.1077 5.84816 74.1078 5.84816 74.1079C5.84816 74.108 5.84816 74.1081 5.84816 74.1082C5.84816 74.1083 5.84816 74.1084 5.84816 74.1085C5.84816 74.1086 5.84816 74.1087 5.84816 74.1088C5.84816 74.1089 5.84816 74.109 5.84816 74.1091C5.84816 74.1092 5.84816 74.1093 5.84816 74.1094C5.84816 74.1095 5.84816 74.1096 5.84816 74.1097C5.84816 74.1098 5.84816 74.1099 5.84816 74.11C5.84816 74.1101 5.84816 74.1102 5.84816 74.1103C5.84816 74.1104 5.84816 74.1105 5.84816 74.1106C5.84816 74.1107 5.84816 74.1108 5.84816 74.1109C5.84816 74.111 5.84816 74.111 5.84816 74.1111C5.84816 74.1112 5.84816 74.1113 5.84816 74.1114C5.84816 74.1115 5.84816 74.1116 5.84816 74.1117C5.84816 74.1118 5.84816 74.1119 5.84816 74.112C5.84816 74.1121 5.84816 74.1122 5.84816 74.1123C5.84816 74.1124 5.84816 74.1125 5.84816 74.1126C5.84816 74.1127 5.84816 74.1128 5.84816 74.1129C5.84816 74.113 5.84816 74.1131 5.84816 74.1132C5.84816 74.1133 5.84816 74.1134 5.84816 74.1135C5.84816 74.1136 5.84816 74.1137 5.84816 74.1138C5.84816 74.1139 5.84816 74.114 5.84816 74.1141C5.84816 74.1142 5.84816 74.1143 5.84816 74.1144C5.84816 74.1145 5.84816 74.1146 5.84816 74.1147C5.84816 74.1148 5.84816 74.1149 5.84816 74.115C5.84816 74.1151 5.84816 74.1152 5.84816 74.1153C5.84816 74.1154 5.84816 74.1155 5.84816 74.1156C5.84816 74.1157 5.84816 74.1158 5.84816 74.1159C5.84816 74.116 5.84816 74.1161 5.84816 74.1162C5.84816 74.1163 5.84816 74.1164 5.84816 74.1165C5.84816 74.1166 5.84816 74.1167 5.84816 74.1168C5.84816 74.1169 5.84816 74.117 5.84816 74.1171C5.84816 74.1172 5.84816 74.1173 5.84816 74.1174C5.84816 74.1175 5.84816 74.1175 5.84816 74.1176C5.84816 74.1177 5.84816 74.1178 5.84816 74.1179C5.84816 74.118 5.84816 74.1181 5.84816 74.1182C5.84816 74.1183 5.84816 74.1184 5.84816 74.1185C5.84816 74.1186 5.84816 74.1187 5.84816 74.1188C5.84816 74.1189 5.84816 74.119 5.84816 74.1191C5.84816 74.1192 5.84816 74.1193 5.84816 74.1194C5.84816 74.1195 5.84816 74.1196 5.84816 74.1197C5.84816 74.1198 5.84816 74.1199 5.84816 74.12C5.84816 74.1201 5.84816 74.1202 5.84816 74.1203C5.84816 74.1204 5.84816 74.1205 5.84816 74.1206C5.84816 74.1207 5.84816 74.1208 5.84816 74.1209C5.84816 74.121 5.84816 74.1211 5.84816 74.1212C5.84816 74.1213 5.84816 74.1214 5.84816 74.1215C5.84816 74.1216 5.84816 74.1217 5.84816 74.1218C5.84816 74.1219 5.84816 74.122 5.84816 74.1221C5.84816 74.1222 5.84816 74.1223 5.84816 74.1224C5.84816 74.1225 5.84816 74.1226 5.84816 74.1227C5.84816 74.1228 5.84816 74.1229 5.84816 74.123C5.84816 74.1231 5.84816 74.1232 5.84816 74.1233C5.84816 74.1234 5.84816 74.1235 5.84816 74.1236C5.84816 74.1237 5.84816 74.1238 5.84816 74.1239C5.84816 74.124 5.84816 74.1241 5.84816 74.1242C5.84816 74.1243 5.84816 74.1244 5.84816 74.1245C5.84816 74.1246 5.84816 74.1247 5.84816 74.1248C5.84816 74.1249 5.84816 74.125 5.84816 74.1251C5.84816 74.1252 5.84816 74.1253 5.84816 74.1254C5.84816 74.1255 5.84816 74.1256 5.84816 74.1257C5.84816 74.1258 5.84816 74.1259 5.84816 74.126C5.84816 74.1261 5.84816 74.1262 5.84816 74.1263C5.84816 74.1264 5.84816 74.1266 5.84816 74.1267C5.84816 74.1268 5.84816 74.1269 5.84816 74.127C5.84816 74.1271 5.84816 74.1272 5.84816 74.1273C5.84816 74.1274 5.84816 74.1275 5.84816 74.1276C5.84816 74.1277 5.84816 74.1278 5.84816 74.1279C5.84816 74.128 5.84816 74.1281 5.84816 74.1282C5.84816 74.1283 5.84816 74.1284 5.84816 74.1285C5.84816 74.1286 5.84816 74.1287 5.84816 74.1288C5.84816 74.1289 5.84816 74.129 5.84816 74.1291C5.84816 74.1292 5.84816 74.1293 5.84816 74.1294C5.84816 74.1295 5.84816 74.1296 5.84816 74.1297C5.84816 74.1298 5.84816 74.1299 5.84816 74.13C5.84816 74.1301 5.84816 74.1302 5.84816 74.1303C5.84816 74.1304 5.84816 74.1305 5.84816 74.1306C5.84816 74.1307 5.84816 74.1308 5.84816 74.1309C5.84816 74.131 5.84816 74.1311 5.84816 74.1312C5.84816 74.1313 5.84816 74.1314 5.84816 74.1315C5.84816 74.1316 5.84816 74.1317 5.84816 74.1318C5.84816 74.1319 5.84816 74.132 5.84816 74.1321C5.84816 74.1322 5.84816 74.1323 5.84816 74.1324C5.84816 74.1326 5.84816 74.1327 5.84816 74.1328C5.84816 74.1329 5.84816 74.133 5.84816 74.1331C5.84816 74.1332 5.84816 74.1333 5.84816 74.1334C5.84816 74.1335 5.84816 74.1336 5.84816 74.1337C5.84816 74.1338 5.84816 74.1339 5.84816 74.134C5.84816 74.1341 5.84816 74.1342 5.84816 74.1343C5.84816 74.1344 5.84816 74.1345 5.84816 74.1346C5.84816 74.1347 5.84816 74.1348 5.84816 74.1349C5.84816 74.135 5.84816 74.1351 5.84816 74.1352C5.84816 74.1353 5.84816 74.1354 5.84816 74.1355C5.84816 74.1356 5.84816 74.1357 5.84816 74.1358C5.84816 74.1359 5.84816 74.136 5.84816 74.1362C5.84816 74.1363 5.84816 74.1364 5.84816 74.1365C5.84816 74.1366 5.84816 74.1367 5.84816 74.1368C5.84816 74.1369 5.84816 74.137 5.84816 74.1371C5.84816 74.1372 5.84816 74.1373 5.84816 74.1374C5.84816 74.1375 5.84816 74.1376 5.84816 74.1377C5.84816 74.1378 5.84816 74.1379 5.84816 74.138C5.84816 74.1381 5.84816 74.1382 5.84816 74.1383C5.84816 74.1384 5.84816 74.1385 5.84816 74.1386C5.84816 74.1387 5.84816 74.1388 5.84816 74.1389C5.84816 74.1391 5.84816 74.1392 5.84816 74.1393C5.84816 74.1394 5.84816 74.1395 5.84816 74.1396C5.84816 74.1397 5.84816 74.1398 5.84816 74.1399C5.84816 74.14 5.84816 74.1401 5.84816 74.1402C5.84816 74.1403 5.84816 74.1404 5.84816 74.1405C5.84816 74.1406 5.84816 74.1407 5.84816 74.1408C5.84816 74.1409 5.84816 74.141 5.84816 74.1411C5.84816 74.1412 5.84816 74.1413 5.84816 74.1415C5.84816 74.1416 5.84816 74.1417 5.84816 74.1418C5.84816 74.1419 5.84816 74.142 5.84816 74.1421C5.84816 74.1422 5.84816 74.1423 5.84816 74.1424C5.84816 74.1425 5.84816 74.1426 5.84816 74.1427C5.84816 74.1428 5.84816 74.1429 5.84816 74.143C5.84816 74.1431 5.84816 74.1432 5.84816 74.1433C5.84816 74.1434 5.84816 74.1436 5.84816 74.1437C5.84816 74.1438 5.84816 74.1439 5.84816 74.144C5.84816 74.1441 5.84816 74.1442 5.84816 74.1443C5.84816 74.1444 5.84816 74.1445 5.84816 74.1446C5.84816 74.1447 5.84816 74.1448 5.84816 74.1449C5.84816 74.145 5.84816 74.1451 5.84816 74.1452C5.84816 74.1454 5.84816 74.1455 5.84816 74.1456C5.84816 74.1457 5.84816 74.1458 5.84816 74.1459C5.84816 74.146 5.84816 74.1461 5.84816 74.1462C5.84816 74.1463 5.84816 74.1464 5.84816 74.1465C5.84816 74.1466 5.84816 74.1467 5.84816 74.1468C5.84816 74.1469 5.84816 74.147 5.84816 74.1472C5.84816 74.1473 5.84816 74.1474 5.84816 74.1475C5.84816 74.1476 5.84816 74.1477 5.84816 74.1478C5.84816 74.1479 5.84816 74.148 5.84816 74.1481C5.84816 74.1482 5.84816 74.1483 5.84816 74.1484C5.84816 74.1485 5.84816 74.1486 5.84816 74.1488C5.84816 74.1489 5.84816 74.149 5.84816 74.1491C5.84816 74.1492 5.84816 74.1493 5.84816 74.1494C5.84816 74.1495 5.84816 74.1496 5.84816 74.1497C5.84816 74.1498 5.84816 74.1499 5.84816 74.15C5.84816 74.1501 5.84816 74.1503 5.84816 74.1504C5.84816 74.1505 5.84816 74.1506 5.84816 74.1507C5.84816 74.1508 5.84816 74.1509 5.84816 74.151C5.84816 74.1511 5.84816 74.1512 5.84816 74.1513C5.84816 74.1514 5.84816 74.1515 5.84816 74.1516C5.84816 74.1518 5.84816 74.1519 5.84816 74.152C5.84816 74.1521 5.84816 74.1522 5.84816 74.1523C5.84816 74.1524 5.84816 74.1525 5.84816 74.1526C5.84816 74.1527 5.84816 74.1528 5.84816 74.1529C5.84816 74.1531 5.84816 74.1532 5.84816 74.1533C5.84816 74.1534 5.84816 74.1535 5.84816 74.1536C5.84816 74.1537 5.84816 74.1538 5.84816 74.1539C5.84816 74.154 5.84816 74.1541 5.84816 74.1542C5.84816 74.1544 5.84816 74.1545 5.84816 74.1546C5.84816 74.1547 5.84816 74.1548 5.84816 74.1549C5.84816 74.155 5.84816 74.1551 5.84816 74.1552C5.84816 74.1553 5.84816 74.1554 5.84816 74.1555C5.84816 74.1557 5.84816 74.1558 5.84816 74.1559C5.84816 74.156 5.84816 74.1561 5.84816 74.1562C5.84816 74.1563 5.84816 74.1564 5.84816 74.1565C5.84816 74.1566 5.84816 74.1567 5.84816 74.1569C5.84816 74.157 5.84816 74.1571 5.84816 74.1572C5.84816 74.1573 5.84816 74.1574 5.84816 74.1575C5.84816 74.1576 5.84816 74.1577 5.84816 74.1578C5.84816 74.158 5.84816 74.1581 5.84816 74.1582C5.84816 74.1583 5.84816 74.1584 5.84816 74.1585C5.84816 74.1586 5.84816 74.1587 5.84816 74.1588C5.84816 74.1589 5.84816 74.1591 5.84816 74.1592C5.84816 74.1593 5.84816 74.1594 5.84816 74.1595C5.84816 74.1596 5.84816 74.1597 5.84816 74.1598C5.84816 74.1599 5.84816 74.16 5.84816 74.1602C5.84816 74.1603 5.84816 74.1604 5.84816 74.1605C5.84816 74.1606 5.84816 74.1607 5.84816 74.1608C5.84816 74.1609 5.84816 74.161 5.84816 74.1611C5.84816 74.1613 5.84816 74.1614 5.84816 74.1615C5.84816 74.1616 5.84816 74.1617 5.84816 74.1618C5.84816 74.1619 5.84816 74.162 5.84816 74.1621C5.84816 74.1623 5.84816 74.1624 5.84816 74.1625C5.84816 74.1626 5.84816 74.1627 5.84816 74.1628C5.84816 74.1629 5.84816 74.163 5.84816 74.1631C5.84816 74.1633 5.84816 74.1634 5.84816 74.1635C5.84816 74.1636 5.84816 74.1637 5.84816 74.1638C5.84816 74.1639 5.84816 74.164 5.84816 74.1642C5.84816 74.1643 5.84816 74.1644 5.84816 74.1645C5.84816 74.1646 5.84816 74.1647 5.84816 74.1648C5.84816 74.1649 5.84816 74.165 5.84816 74.1652C5.84816 74.1653 5.84816 74.1654 5.84816 74.1655C5.84816 74.1656 5.84816 74.1657 5.84816 74.1658C5.84816 74.1659 5.84816 74.1661 5.84816 74.1662C5.84816 74.1663 5.84816 74.1664 5.84816 74.1665C5.84816 74.1666 5.84816 74.1667 5.84816 74.1668C5.84816 74.167 5.84816 74.1671 5.84816 74.1672C5.84816 74.1673 5.84816 74.1674 5.84816 74.1675C5.84816 74.1676 5.84816 74.1677 5.84816 74.1679C5.84816 74.168 5.84816 74.1681 5.84816 74.1682C5.84816 74.1683 5.84816 74.1684 5.84816 74.1685C5.84816 74.1687 5.84816 74.1688 5.84816 74.1689C5.84816 74.169 5.84816 74.1691 5.84816 74.1692C5.84816 74.1693 5.84816 74.1694 5.84816 74.1696C5.84816 74.1697 5.84816 74.1698 5.84816 74.1699C5.84816 74.17 5.84816 74.1701 5.84816 74.1702C5.84816 74.1704 5.84816 74.1705 5.84816 74.1706C5.84816 74.1707 5.84816 74.1708 5.84816 74.1709C5.84816 74.171 5.84816 74.1712 5.84816 74.1713C5.84816 74.1714 5.84816 74.1715 5.84816 74.1716C5.84816 74.1717 5.84816 74.1718 5.84816 74.172C5.84816 74.1721 5.84816 74.1722 5.84816 74.1723C5.84816 74.1724 5.84816 74.1725 5.84816 74.1726C5.84816 74.1728 5.84816 74.1729 5.84816 74.173C5.84816 74.1731 5.84816 74.1732 5.84816 74.1733C5.84816 74.1734 5.84816 74.1736 5.84816 74.1737C5.84816 74.1738 5.84816 74.1739 5.84816 74.174C5.84816 74.1741 5.84816 74.1743 5.84816 74.1744C5.84816 74.1745 5.84816 74.1746 5.84816 74.1747C5.84816 74.1748 5.84816 74.1749 5.84816 74.1751C5.84816 74.1752 5.84816 74.1753 5.84816 74.1754C5.84816 74.1755 5.84816 74.1756 5.84816 74.1758C5.84816 74.1759 5.84816 74.176 5.84816 74.1761C5.84816 74.1762 5.84816 74.1763 5.84816 74.1765C5.84816 74.1766 5.84816 74.1767 5.84816 74.1768C5.84816 74.1769 5.84816 74.177 5.84816 74.1771C5.84816 74.1773 5.84816 74.1774 5.84816 74.1775C5.84816 74.1776 5.84816 74.1777 5.84816 74.1778C5.84816 74.178 5.84816 74.1781 5.84816 74.1782C5.84816 74.1783 5.84816 74.1784 5.84816 74.1785C5.84816 74.1787 5.84816 74.1788 5.84816 74.1789C5.84816 74.179 5.84816 74.1791 5.84816 74.1792C5.84816 74.1794 5.84816 74.1795 5.84816 74.1796C5.84816 74.1797 5.84816 74.1798 5.84816 74.18C5.84816 74.1801 5.84816 74.1802 5.84816 74.1803C5.84816 74.1804 5.84816 74.1805 5.84816 74.1807C5.84816 74.1808 5.84816 74.1809 5.84816 74.181C5.84816 74.1811 5.84816 74.1812 5.84816 74.1814C5.84816 74.1815 5.84816 74.1816 5.84816 74.1817C5.84816 74.1818 5.84816 74.182 5.84816 74.1821C5.84816 74.1822 5.84816 74.1823 5.84816 74.1824C5.84816 74.1825 5.84816 74.1827 5.84816 74.1828C5.84816 74.1829 5.84816 74.183 5.84816 74.1831C5.84816 74.1833 5.84816 74.1834 5.84816 74.1835C5.84816 74.1836 5.84816 74.1837 5.84816 74.1839C5.84816 74.184 5.84816 74.1841 5.84816 74.1842C5.84816 74.1843 5.84816 74.1844 5.84816 74.1846C5.84816 74.1847 5.84816 74.1848 5.84816 74.1849C5.84816 74.185 5.84816 74.1852 5.84816 74.1853C5.84816 74.1854 5.84816 74.1855 5.84816 74.1856C5.84816 74.1858 5.84816 74.1859 5.84816 74.186C5.84816 74.1861 5.84816 74.1862 5.84816 74.1864C5.84816 74.1865 5.84816 74.1866 5.84816 74.1867C5.84816 74.1868 5.84816 74.187 5.84816 74.1871C5.84816 74.1872 5.84816 74.1873 5.84816 74.1874C5.84816 74.1876 5.84816 74.1877 5.84816 74.1878C5.84816 74.1879 5.84816 74.188 5.84816 74.1882C5.84816 74.1883 5.84816 74.1884 5.84816 74.1885C5.84816 74.1886 5.84816 74.1888 5.84816 74.1889C5.84816 74.189 5.84816 74.1891 5.84816 74.1892C5.84816 74.1894 5.84816 74.1895 5.84816 74.1896C5.84816 74.1897 5.84816 74.1898 5.84816 74.19C5.84816 74.1901 5.84816 74.1902 5.84816 74.1903C5.84816 74.1905 5.84816 74.1906 5.84816 74.1907C5.84816 74.1908 5.84816 74.1909 5.84816 74.1911C5.84816 74.1912 5.84816 74.1913 5.84816 74.1914C5.84816 74.1916 5.84816 74.1917 5.84816 74.1918C5.84816 74.1919 5.84816 74.192 5.84816 74.1922C5.84816 74.1923 5.84816 74.1924 5.84816 74.1925C5.84816 74.1926 5.84816 74.1928 5.84816 74.1929C5.84816 74.193 5.84816 74.1931 5.84816 74.1933C5.84816 74.1934 5.84816 74.1935 5.84816 74.1936C5.84816 74.1938 5.84816 74.1939 5.84816 74.194C5.84816 74.1941 5.84816 74.1942 5.84816 74.1944C5.84816 74.1945 5.84816 74.1946 5.84816 74.1947C5.84816 74.1949 5.84816 74.195 5.84816 74.1951C5.84816 74.1952 5.84816 74.1953 5.84816 74.1955C5.84816 74.1956 5.84816 74.1957 5.84816 74.1958C5.84816 74.196 5.84816 74.1961 5.84816 74.1962C5.84816 74.1963 5.84816 74.1965 5.84816 74.1966C5.84816 74.1967 5.84816 74.1968 5.84816 74.197C5.84816 74.1971 5.84816 74.1972 5.84816 74.1973C5.84816 74.1975 5.84816 74.1976 5.84816 74.1977C5.84816 74.1978 5.84816 74.198 5.84816 74.1981C5.84816 74.1982 5.84816 74.1983 5.84816 74.1984C5.84816 74.1986 5.84816 74.1987 5.84816 74.1988C5.84816 74.1989 5.84816 74.1991 5.84816 74.1992C5.84816 74.1993 5.84816 74.1994 5.84816 74.1996C5.84816 74.1997 5.84816 74.1998 5.84816 74.1999C5.84816 74.2001 5.84816 74.2002 5.84816 74.2003C5.84816 74.2004 5.84816 74.2006 5.84816 74.2007C5.84816 74.2008 5.84816 74.2009 5.84816 74.2011C5.84816 74.2012 5.84816 74.2013 5.84816 74.2015C5.84816 74.2016 5.84816 74.2017 5.84816 74.2018C5.84816 74.202 5.84816 74.2021 5.84816 74.2022C5.84816 74.2023 5.84816 74.2025 5.84816 74.2026C5.84816 74.2027 5.84816 74.2028 5.84816 74.203C5.84816 74.2031 5.84816 74.2032 5.84816 74.2033C5.84816 74.2035 5.84816 74.2036 5.84816 74.2037C5.84816 74.2038 5.84816 74.204 5.84816 74.2041C5.84816 74.2042 5.84816 74.2044 5.84816 74.2045C5.84816 74.2046 5.84816 74.2047 5.84816 74.2049C5.84816 74.205 5.84816 74.2051 5.84816 74.2052C5.84816 74.2054 5.84816 74.2055 5.84816 74.2056C5.84816 74.2058 5.84816 74.2059 5.84816 74.206C5.84816 74.2061 5.84816 74.2063 5.84816 74.2064C5.84816 74.2065 5.84816 74.2067 5.84816 74.2068C5.84816 74.2069 5.84816 74.207 5.84816 74.2072C5.84816 74.2073 5.84816 74.2074 5.84816 74.2075C5.84816 74.2077 5.84816 74.2078 5.84816 74.2079C5.84816 74.2081 5.84816 74.2082 5.84816 74.2083C5.84816 74.2084 5.84816 74.2086 5.84816 74.2087C5.84816 74.2088 5.84816 74.209 5.84816 74.2091C5.84816 74.2092 5.84816 74.2093 5.84816 74.2095C5.84816 74.2096 5.84816 74.2097 5.84816 74.2099C5.84816 74.21 5.84816 74.2101 5.84816 74.2103C5.84816 74.2104 5.84816 74.2105 5.84816 74.2106C5.84816 74.2108 5.84816 74.2109 5.84816 74.211C5.84816 74.2112 5.84816 74.2113 5.84816 74.2114C5.84816 74.2115 5.84816 74.2117 5.84816 74.2118C5.84816 74.2119 5.84816 74.2121 5.84816 74.2122C5.84816 74.2123 5.84816 74.2125 5.84816 74.2126C5.84816 74.2127 5.84816 74.2129 5.84816 74.213C5.84816 74.2131 5.84816 74.2132 5.84816 74.2134C5.84816 74.2135 5.84816 74.2136 5.84816 74.2138C5.84816 74.2139 5.84816 74.214 5.84816 74.2142C5.84816 74.2143 5.84816 74.2144 5.84816 74.2146C5.84816 74.2147 5.84816 74.2148 5.84816 74.2149C5.84816 74.2151 5.84816 74.2152 5.84816 74.2153C5.84816 74.2155 5.84816 74.2156 5.84816 74.2157C5.84816 74.2159 5.84816 74.216 5.84816 74.2161C5.84816 74.2163 5.84816 74.2164 5.84816 74.2165C5.84816 74.2167 5.84816 74.2168 5.84816 74.2169C5.84816 74.2171 5.84816 74.2172 5.84816 74.2173C5.84816 74.2175 5.84816 74.2176 5.84816 74.2177C5.84816 74.2178 5.84816 74.218 5.84816 74.2181C5.84816 74.2182 5.84816 74.2184 5.84816 74.2185C5.84816 74.2186 5.84816 74.2188 5.84816 74.2189C5.84816 74.219 5.84816 74.2192 5.84816 74.2193C5.84816 74.2194 5.84816 74.2196 5.84816 74.2197C5.84816 74.2198 5.84816 74.22 5.84816 74.2201C5.84816 74.2202 5.84816 74.2204 5.84816 74.2205C5.84816 74.2206 5.84816 74.2208 5.84816 74.2209C5.84816 74.221 5.84816 74.2212 5.84816 74.2213C5.84816 74.2215 5.84816 74.2216 5.84816 74.2217C5.84816 74.2219 5.84816 74.222 5.84816 74.2221C5.84816 74.2223 5.84816 74.2224 5.84816 74.2225C5.84816 74.2227 5.84816 74.2228 5.84816 74.2229C5.84816 74.2231 5.84816 74.2232 5.84816 74.2233C5.84816 74.2235 5.84816 74.2236 5.84816 74.2237C5.84816 74.2239 5.84816 74.224 5.84816 74.2241C5.84816 74.2243 5.84816 74.2244 5.84816 74.2246C5.84816 74.2247 5.84816 74.2248 5.84816 74.225C5.84816 74.2251 5.84816 74.2252 5.84816 74.2254C5.84816 74.2255 5.84816 74.2256 5.84816 74.2258C5.84816 74.2259 5.84816 74.226 5.84816 74.2262C5.84816 74.2263 5.84816 74.2265 5.84816 74.2266C5.84816 74.2267 5.84816 74.2269 5.84816 74.227C5.84816 74.2271 5.84816 74.2273 5.84816 74.2274C5.84816 74.2275 5.84816 74.2277 5.84816 74.2278C5.84816 74.228 5.84816 74.2281 5.84816 74.2282C5.84816 74.2284 5.84816 74.2285 5.84816 74.2286C5.84816 74.2288 5.84816 74.2289 5.84816 74.2291C5.84816 74.2292 5.84816 74.2293 5.84816 74.2295C5.84816 74.2296 5.84816 74.2297 5.84816 74.2299C5.84816 74.23 5.84816 74.2302 5.84816 74.2303C5.84816 74.2304 5.84816 74.2306 5.84816 74.2307C5.84816 74.2308 5.84816 74.231 5.84816 74.2311C5.84816 74.2313 5.84816 74.2314 5.84816 74.2315C5.84816 74.2317 5.84816 74.2318 5.84816 74.232C5.84816 74.2321 5.84816 74.2322 5.84816 74.2324C5.84816 74.2325 5.84816 74.2326 5.84816 74.2328C5.84816 74.2329 5.84816 74.2331 5.84816 74.2332C5.84816 74.2333 5.84816 74.2335 5.84816 74.2336C5.84816 74.2338 5.84816 74.2339 5.84816 74.234C5.84816 74.2342 5.84816 74.2343 5.84816 74.2345C5.84816 74.2346 5.84816 74.2347 5.84816 74.2349C5.84816 74.235 5.84816 74.2352 5.84816 74.2353C5.84816 74.2354 5.84816 74.2356 5.84816 74.2357C5.84816 74.2359 5.84816 74.236 5.84816 74.2361C5.84816 74.2363 5.84816 74.2364 5.84816 74.2366C5.84816 74.2367 5.84816 74.2368 5.84816 74.237C5.84816 74.2371 5.84816 74.2373 5.84816 74.2374C5.84816 74.2375 5.84816 74.2377 5.84816 74.2378C5.84816 74.238 5.84816 74.2381 5.84816 74.2383C5.84816 74.2384 5.84816 74.2385 5.84816 74.2387C5.84816 74.2388 5.84816 74.239 5.84816 74.2391C5.84816 74.2392 5.84816 74.2394 5.84816 74.2395C5.84816 74.2397 5.84816 74.2398 5.84816 74.24H3.84816ZM3.84816 74.0706V36.0555H5.84816V74.0706H3.84816ZM3.84816 36.0555V35.2083H5.84816V36.0555H3.84816ZM3.84816 35.2083C3.84816 34.4298 4.14932 33.7557 4.62181 33.2461L6.08842 34.6059C5.93295 34.7736 5.84816 34.9709 5.84816 35.2083H3.84816ZM4.63642 33.2307L14.9843 22.5352L16.4217 23.9258L6.0738 34.6213L4.63642 33.2307ZM14.703 23.2305V1.81516H16.703V23.2305H14.703ZM14.703 1.81516C14.703 0.249573 15.9436 -1 17.5118 -1V1C17.0546 1 16.703 1.34773 16.703 1.81516H14.703ZM17.5118 -1C19.0474 -1 20.3212 0.240639 20.3212 1.81516H18.3212C18.3212 1.35667 17.9544 1 17.5118 1V-1ZM20.3212 1.81516V23.2305H18.3212V1.81516H20.3212ZM20.0407 22.536L30.3644 33.2315L28.9254 34.6205L18.6017 23.925L20.0407 22.536ZM30.3756 33.2433C30.9211 33.8272 31.1875 34.5744 31.1507 35.3298L29.153 35.2325C29.1634 35.0193 29.0922 34.7992 28.9142 34.6087L30.3756 33.2433ZM31.1518 35.2812V36.0555H29.1518V35.2812H31.1518ZM30.1518 35.0555H30.1754V37.0555H30.1518V35.0555ZM31.1754 36.0555V41.1126H29.1754V36.0555H31.1754ZM31.1754 41.1126V50.4044H29.1754V41.1126H31.1754ZM31.1754 50.4044V59.7211H29.1754V50.4044H31.1754ZM31.1754 59.7211V69.0372H29.1754V59.7211H31.1754ZM31.1754 69.0372V74.0706H29.1754V69.0372H31.1754ZM31.1754 74.0706C31.1754 74.1484 31.1761 74.3231 31.1032 74.5482L29.2005 73.9318C29.1913 73.9602 29.1828 73.9971 29.1783 74.0382C29.1747 74.0721 29.1754 74.099 29.1754 74.0706H31.1754ZM30.1518 73.24H33.1906V75.24H30.1518V73.24ZM33.1906 73.24C34.7589 73.24 36 74.489 36 76.0544H34C34 75.5882 33.6489 75.24 33.1906 75.24V73.24ZM36 76.0544C36 77.5873 34.7678 78.8696 33.1906 78.8696V76.8696C33.6399 76.8696 34 76.5062 34 76.0544H36ZM33.1906 78.8696H26.4368V76.8696H33.1906V78.8696ZM26.4368 78.8696H26.3884V76.8696H26.4368V78.8696ZM26.3884 78.8696H19.3212V76.8696H26.3884V78.8696Z" fill="white" mask="url(#path-1-inside-1_1_619)"/>
</svg>
